<svg width="143" height="117" viewBox="0 0 143 117" fill="none" xmlns="http://www.w3.org/2000/svg">
<path fill-rule="evenodd" clip-rule="evenodd" d="M131.217 54.9773L28.7846 114.693C22.8289 118.165 18 114.48 18 106.461V88.828C18 80.8096 22.8289 71.4944 28.7846 68.0227L131.217 8.30651C137.172 4.83476 142 8.52035 142 16.5388V34.172C142 42.1904 137.172 51.5056 131.217 54.9773Z" stroke="#1D1D1B"/>
<path fill-rule="evenodd" clip-rule="evenodd" d="M42 84.9427C42 88.0409 40.2911 90.8689 37.6335 92.3284C35.0001 93.7715 33 92.9105 33 89.5356C33 86.1585 34.9759 83.1174 37.6207 81.6656C39.785 80.4773 41.5447 80.8584 41.9249 82.9846L40.7232 83.8522C40.4829 82.2619 39.2534 81.9072 37.608 82.811C35.5952 83.9148 34.1774 86.1376 34.1774 88.8898C34.1774 91.6398 35.6206 92.2911 37.608 91.2016C39.3297 90.256 40.5707 88.5768 40.7602 86.3177L37.645 88.0277V86.902L42 84.5122V84.9427Z" fill="#1D1D1B"/>
<path fill-rule="evenodd" clip-rule="evenodd" d="M46.1924 77.0811V80.7724L50.4298 78.2676V79.477L46.1924 81.9806V86.0545L51 83.2143V84.454L45 88V76.5448L51 73V74.2385L46.1924 77.0811Z" fill="#1D1D1B"/>
<path fill-rule="evenodd" clip-rule="evenodd" d="M56.5679 72.0652V81.359L55.4321 82V72.7063L52 74.6425V73.5136L60 69V70.1278L56.5679 72.0652Z" fill="#1D1D1B"/>
<path fill-rule="evenodd" clip-rule="evenodd" d="M71.72 64.7009L70.5361 65.4441C70.4722 64.2907 69.6578 64.0359 68.4611 64.7009C67.0994 65.4575 66.4 66.6377 66.4 67.6703C66.4 68.9276 67.29 68.7019 68.7167 68.2638C70.765 67.6625 72 67.5575 72 69.4082C72 71.5294 70.4722 73.3108 68.6144 74.3435C66.6149 75.4521 65.0883 75.1973 65 73.2683L66.1711 72.5475C66.2606 73.7411 67.29 73.9456 68.6144 73.2102C69.8739 72.5117 70.8161 71.4511 70.8161 70.1648C70.8161 68.9075 69.8739 69.1467 68.2961 69.6004C66.5917 70.0933 65.2161 70.3771 65.2161 68.3688C65.2161 66.7584 66.2734 64.7858 68.4367 63.5844C70.3072 62.5451 71.6445 62.877 71.72 64.7009Z" fill="#1D1D1B"/>
<path fill-rule="evenodd" clip-rule="evenodd" d="M78.5685 59.0652V68.359L77.4315 69V59.7063L74 61.6425V60.5136L82 56V57.1278L78.5685 59.0652Z" fill="#1D1D1B"/>
<path fill-rule="evenodd" clip-rule="evenodd" d="M87.5913 59.8911L86.0124 56.2037L84.4201 61.8126L87.5913 59.8911ZM88.8651 62.8388L87.9782 60.7582L84.0342 63.1481L83.1369 66.3115L82 67L85.5581 54.5359L86.444 54L90 62.1503L88.8651 62.8388Z" fill="#1D1D1B"/>
<path fill-rule="evenodd" clip-rule="evenodd" d="M95.4868 53.6995C96.4773 53.1446 97.3304 52.0359 97.3304 50.6608C97.3304 49.2835 96.4773 49.1303 95.4868 49.6841L93.1417 50.996V55.0124L95.4868 53.6995ZM95.6002 54.7738L93.1531 56.1423V60.3541L92 61V50.4976L95.6242 48.47C97.2434 47.5655 98.5099 47.9095 98.5099 50.0015C98.5099 51.5453 97.8205 52.9126 96.7922 53.8971L99 57.0834L97.706 57.8059L95.6002 54.7738Z" fill="#1D1D1B"/>
<path fill-rule="evenodd" clip-rule="evenodd" d="M105.569 44.0652V53.359L104.433 54V44.7063L101 46.6425V45.5136L109 41V42.1278L105.569 44.0652Z" fill="#1D1D1B"/>
<path fill-rule="evenodd" clip-rule="evenodd" d="M112.191 40.0811V43.7724L116.43 41.2676V42.477L112.191 44.9806V49.0545L117 46.2143V47.454L111 51V39.5448L117 36V37.2385L112.191 40.0811Z" fill="#1D1D1B"/>
<path fill-rule="evenodd" clip-rule="evenodd" d="M120.117 43.2965L122.569 41.9169C124.485 40.8405 125.882 38.6342 125.882 35.9709C125.882 33.3088 124.521 32.6522 122.595 33.7352L120.117 35.129V43.2965ZM122.583 32.6675C125.109 31.2465 127 32.0742 127 35.3438C127 38.6124 125.074 41.5864 122.558 43.0009L119 45V34.6808L122.583 32.6675Z" fill="#1D1D1B"/>
<path d="M22.6717 116L5.05718 109.213L5.05376 109.216C2.58165 107.991 1 104.832 1 100.263V82.6653C1 74.6629 5.85426 65.3663 11.8427 61.9015L114.838 2.30438C117.083 1.0045 119.169 0.710061 120.9 1.27041L138 7.92731" stroke="#1D1D1B"/>
</svg>
