<svg width="171" height="124" viewBox="0 0 171 124" fill="none" xmlns="http://www.w3.org/2000/svg">
<path d="M70.7502 94.6777L70.8282 112.673C70.8352 114.324 71.7332 115.662 72.9862 116.38" stroke="#1D1D1B"/>
<path d="M156.315 1.54714C155.045 0.761143 153.375 0.627143 151.899 1.48514L101.93 30.5181" stroke="#1D1D1B"/>
<path d="M82.0837 75.9548L82.2517 119.05C82.2647 122.351 85.8447 124.402 88.6987 122.743L167.81 76.7868C169.135 76.0168 169.949 74.5988 169.945 73.0658L169.799 11.8918C169.791 8.58777 166.209 6.53177 163.352 8.19177L97.5637 46.4148" stroke="#1D1D1B"/>
<path d="M91.3916 60.0024L169.73 14.3564" stroke="#1D1D1B"/>
<path d="M156.318 1.55566L167.894 8.34466" stroke="#1D1D1B"/>
<path d="M72.9863 116.38L84.4373 122.77" stroke="#1D1D1B"/>
<path fill-rule="evenodd" clip-rule="evenodd" d="M118.704 53.1709V78.7509L136.453 63.0299L118.704 53.1709Z" stroke="#1D1D1B"/>
<path d="M169.945 65.9609L82.2391 115.674L70.7891 109.584" stroke="#1D1D1B"/>
<path d="M84.8477 2.16656C81.5677 -0.0484433 77.0267 -0.116444 71.6357 2.32956C56.2067 9.32856 49.7727 24.1706 47.1787 33.4756" stroke="#1D1D1B"/>
<path d="M38.7603 28.6394C34.8723 26.0674 28.8103 25.8914 19.4093 32.4814C-0.900713 46.7204 -9.14471 82.7034 16.6563 95.4344C19.3763 96.7764 23.2043 99.4124 25.4653 100.533" stroke="#1D1D1B"/>
<path fill-rule="evenodd" clip-rule="evenodd" d="M83.5711 9.18871C60.1641 19.8067 57.4581 48.4787 57.4581 48.4787C57.4581 48.4787 54.7531 22.9317 31.3451 39.3417C11.0351 53.5807 2.79108 89.5627 28.5921 102.294C51.4961 113.596 57.4581 116.778 57.4581 116.778C57.4581 116.778 63.4211 106.711 86.3251 68.9617C112.125 26.4387 103.882 -0.0252935 83.5711 9.18871Z" stroke="#1D1D1B"/>
<path d="M83.5298 1.42773L96.7498 9.00573" stroke="#1D1D1B"/>
<path d="M37.6758 28.0205L50.5758 35.4255" stroke="#1D1D1B"/>
</svg>
