<svg width="141" height="139" viewBox="0 0 141 139" fill="none" xmlns="http://www.w3.org/2000/svg">
<path d="M128.294 39.0107C127.139 38.2967 125.621 38.1737 124.278 38.9537L106.038 49.4107L103.416 50.9137C102.209 51.6147 101.469 52.9077 101.474 54.3037L101.278 110.581C101.284 112.082 102.1 113.299 103.24 113.952" stroke="#1D1D1B"/>
<path fill-rule="evenodd" clip-rule="evenodd" d="M110.84 60.5983L111.057 116.174C111.069 119.176 114.324 121.042 116.92 119.534L138.138 107.229C139.343 106.529 140.083 105.239 140.08 103.845L139.947 48.2133C139.94 45.2083 136.682 43.3393 134.084 44.8483L112.782 57.2083C111.575 57.9103 110.835 59.2023 110.84 60.5983Z" stroke="#1D1D1B"/>
<path d="M101.474 61.6361L110.84 67.4471L139.884 50.4551" stroke="#1D1D1B"/>
<path d="M101.287 107.806L111.047 113.579L140.063 96.7354" stroke="#1D1D1B"/>
<path d="M128.296 39.0176L138.214 44.9866" stroke="#1D1D1B"/>
<path d="M103.24 113.951L113.045 119.558" stroke="#1D1D1B"/>
<path fill-rule="evenodd" clip-rule="evenodd" d="M128.891 109.221C128.605 110.636 127.551 111.618 126.535 111.413C125.52 111.208 124.928 109.895 125.214 108.479C125.499 107.064 126.554 106.082 127.569 106.287C128.585 106.492 129.177 107.806 128.891 109.221Z" stroke="#1D1D1B"/>
<path d="M3.43051 117.785C1.66251 117.213 0.499512 115.187 0.499512 112.128V59.3151C0.499512 54.4201 3.47551 48.7341 7.14751 46.6141L85.6395 1.29715C87.3025 0.336149 88.8235 0.273149 89.9895 0.946149" stroke="#1D1D1B" stroke-linecap="round" stroke-linejoin="round"/>
<path d="M42.5638 111.261V114.52C42.5638 120.154 38.8388 124.693 30.5918 129.455V133.531" stroke="#1D1D1B" stroke-linecap="round" stroke-linejoin="round"/>
<path d="M68.0459 107.83C67.6529 108.057 67.2709 108.272 66.8989 108.476" stroke="#1D1D1B" stroke-linecap="round" stroke-linejoin="round"/>
<path d="M101.394 77.0772C100.596 77.7282 100.118 78.0312 99.389 78.4512L20.897 123.769C17.226 125.889 14.25 123.639 14.25 118.744V65.9312C14.25 61.0362 17.226 55.3502 20.897 53.2302L99.389 7.91316C103.061 5.79316 106.037 8.04316 106.037 12.9382V49.4102" stroke="#1D1D1B" stroke-linecap="round" stroke-linejoin="round"/>
<path fill-rule="evenodd" clip-rule="evenodd" d="M66.8985 111.387V97.21L56.1995 103.387L53.3885 105.01V119.187C53.3885 124.821 49.6625 129.36 41.4165 134.121V138.198L56.1995 129.663L78.8705 116.574V112.497C70.6235 117.258 66.8985 117.021 66.8985 111.387Z" stroke="#1D1D1B" stroke-linecap="round" stroke-linejoin="round"/>
<path d="M101.421 61.2367C100.816 63.4947 99.3983 65.6517 97.7473 66.6057L22.9553 109.787C20.7533 111.058 18.9673 109.709 18.9673 106.772V64.4657C18.9673 61.5287 20.7533 58.1177 22.9553 56.8467L97.7473 13.6647C99.9493 12.3937 101.734 13.7437 101.734 16.6797V52.8997" stroke="#1D1D1B" stroke-linecap="round" stroke-linejoin="round"/>
<path d="M89.9795 0.950195L103.62 7.4972" stroke="#1D1D1B" stroke-linecap="round" stroke-linejoin="round"/>
<path d="M3.23438 117.704L17.4124 124.567" stroke="#1D1D1B" stroke-linecap="round" stroke-linejoin="round"/>
<path d="M30.5923 133.53L41.4163 138.197" stroke="#1D1D1B" stroke-linecap="round" stroke-linejoin="round"/>
<path d="M30.5923 129.454L41.4163 134.121" stroke="#1D1D1B" stroke-linecap="round" stroke-linejoin="round"/>
<path d="M78.8704 112.498L68.0464 107.831" stroke="#1D1D1B" stroke-linecap="round" stroke-linejoin="round"/>
</svg>
