<svg width="97" height="136" viewBox="0 0 97 136" fill="none" xmlns="http://www.w3.org/2000/svg">
<path fill-rule="evenodd" clip-rule="evenodd" d="M75.7491 22.3623C75.7491 8.05232 65.7021 2.25132 53.3091 9.40632C40.9161 16.5623 30.8691 33.9633 30.8691 48.2733C30.8691 62.5843 40.9161 68.3843 53.3091 61.2293C65.7021 54.0743 75.7491 36.6723 75.7491 22.3623Z" stroke="#1D1D1B"/>
<path fill-rule="evenodd" clip-rule="evenodd" d="M10.8296 134.806C10.8296 107.716 29.8486 74.7755 53.3086 61.2305C76.7696 47.6855 95.7886 58.6655 95.7886 85.7555L10.8296 134.806Z" stroke="#1D1D1B" stroke-linecap="round" stroke-linejoin="round"/>
<path d="M10.8295 134.806L0.499512 128.963C0.499512 105.26 15.0605 77.0762 34.4185 61.3262" stroke="#1D1D1B" stroke-linecap="round" stroke-linejoin="round"/>
<path d="M37.5771 62.8728L27.1121 56.9588C23.0511 54.6148 20.5391 49.5868 20.5391 42.4318C20.5391 28.1218 30.5861 10.7198 42.9791 3.56481C48.7361 0.241809 53.9861 -0.287191 57.9581 1.53381V1.53781L68.9691 7.72581" stroke="#1D1D1B"/>
<path d="M65.4199 49.8262C67.5789 50.1342 69.6079 50.7332 71.4849 51.6122L83.7169 58.4782" stroke="#1D1D1B"/>
</svg>
