<svg width="228" height="89" viewBox="0 0 228 89" fill="none" xmlns="http://www.w3.org/2000/svg">
<path fill-rule="evenodd" clip-rule="evenodd" d="M190.027 27.5092C193.471 17.0362 204.273 11.4616 214.46 14.9021C224.978 18.4578 230.58 30.1222 226.837 40.6771C223.216 50.8895 212.024 56.3579 202.017 52.7992C191.993 49.2344 186.612 37.8883 190.027 27.5092Z" fill="#993A50"/>
<mask id="mask0" mask-type="alpha" maskUnits="userSpaceOnUse" x="0" y="1" width="174" height="88">
<path fill-rule="evenodd" clip-rule="evenodd" d="M0 1.65649H173.277V88.0801H0V1.65649Z" fill="white"/>
</mask>
<g mask="url(#mask0)">
<path fill-rule="evenodd" clip-rule="evenodd" d="M137.941 87.9848C127.453 88.7335 117.121 85.0263 108.928 78.4236C106.675 76.6106 104.263 74.5841 101.953 72.4434C88.8701 60.3145 82.1111 59.4365 67.5731 68.8715C64.2551 71.0242 61.1531 73.5649 57.6761 75.4019C40.0901 84.6985 19.2401 79.9691 7.65408 64.2292C-4.30092 47.9871 -2.02992 25.2988 12.9011 11.82C27.4871 -1.34925 48.5141 -1.78822 64.1111 10.8909C67.1711 13.3774 69.7781 16.4141 72.6971 19.0841C84.5861 29.9652 92.1281 30.4883 105.964 21.4714C109.747 19.0029 113.311 16.0834 117.337 14.1201C133.486 6.23958 152.137 10.1964 163.84 23.6933C176.584 38.3959 176.374 60.8888 163.495 75.4711C156.997 82.8314 148.186 87.2542 137.941 87.9848Z" fill="#993A50"/>
</g>
</svg>
