<svg width="454" height="571" viewBox="0 0 454 571" fill="none" xmlns="http://www.w3.org/2000/svg">
<mask id="mask0" mask-type="alpha" maskUnits="userSpaceOnUse" x="-84" y="1" width="537" height="568">
<path fill-rule="evenodd" clip-rule="evenodd" d="M452.202 416.018L92.1422 1.81568L-83.8107 154.769L276.25 568.971L452.202 416.018Z" fill="white"/>
</mask>
<g mask="url(#mask0)">
<path fill-rule="evenodd" clip-rule="evenodd" d="M374.331 475.548C385.003 473.609 394.747 467.745 401.259 459.075C408.244 449.771 410.904 438.854 408.698 428.297C405.125 411.206 394.753 399.891 377.572 395.631C373.045 394.508 368.213 394.379 363.507 394.259C345.707 393.807 334.711 384.205 329.921 367.892C327.125 358.359 325.684 348.243 325.049 338.297C321.84 288.219 297.052 254.542 250.124 236.55C237.53 231.722 224.991 225.898 213.797 218.464C191.629 203.747 185.42 186.004 191.221 160.242C192.387 155.06 194.197 150.01 195.132 144.795C200.347 115.708 177.044 91.9827 147.824 96.4873C147.241 96.5756 146.666 96.7074 146.084 96.8101C111.567 103.045 111.189 102.844 95.218 69.9776C85.2213 49.4048 63.8365 40.1362 43.5648 47.5945C23.1923 55.0867 12.1173 77.2574 18.4347 97.9158C24.7798 118.677 44.682 129.91 67.4077 125.504C70.3012 124.942 73.1238 124.012 76.018 123.442C95.1455 119.696 105.088 124.548 113.223 141.911C116.726 149.391 120.042 156.986 122.91 164.726C128.524 179.87 125.279 190.701 112.329 200.557C108.118 203.762 103.227 206.079 99.0414 209.314C79.3578 224.532 75.749 254.119 94.9885 269.578C113.94 284.803 115.127 302.122 112.223 323.036C107.287 358.62 116.92 390.198 143.192 415.07C175.146 445.319 212.746 453.265 254.659 439.311C264.169 436.146 273.428 431.985 283.141 429.714C307.24 424.079 319.094 429.865 330.96 451.723C340.461 469.225 355.046 478.037 372.451 475.838C373.081 475.759 373.709 475.662 374.331 475.548Z" fill="#993A50"/>
</g>
<path fill-rule="evenodd" clip-rule="evenodd" d="M268.848 258.98C227.303 234.343 173.636 248.631 150.29 290.546C127.693 331.111 142.064 383.258 182.16 406.201C222.325 429.184 274.315 415.056 298.043 374.713C321.986 334.004 309.079 282.839 268.848 258.98Z" fill="#5A5B81"/>
<path fill-rule="evenodd" clip-rule="evenodd" d="M286.332 326.299C297.089 307.939 291.194 284.804 272.999 273.974C254.212 262.786 230.007 269.172 219.52 288.079C209.373 306.377 215.928 329.954 234.06 340.375C252.22 350.81 275.671 344.495 286.332 326.299Z" fill="#DB5F7F"/>
</svg>
