<svg width="403" height="525" viewBox="0 0 403 525" fill="none" xmlns="http://www.w3.org/2000/svg">
<mask id="mask0" mask-type="alpha" maskUnits="userSpaceOnUse" x="1" y="2" width="505" height="523">
<path fill-rule="evenodd" clip-rule="evenodd" d="M202.022 524.118L1.78133 177.291L304.997 2.22914L505.237 349.056L202.022 524.118Z" fill="white"/>
</mask>
<g mask="url(#mask0)">
<path fill-rule="evenodd" clip-rule="evenodd" d="M95.407 142.752C87.1974 155.264 78.4009 166.264 64.9803 174.357C23.9757 199.088 26.399 249.17 68.1933 272.362C79.4074 278.581 90.1829 287.345 98.1428 297.338C117.663 321.845 140.643 340.913 170.029 352.081C175.133 354.021 180.092 356.423 184.914 359C200.181 367.162 207.218 377.975 204.104 397.085C198.519 431.333 220.564 459.327 252.844 461.616C289.734 464.234 313.617 432.602 310.789 405.206C309.786 395.466 309.021 389.676 313.416 381.797C317.213 374.996 325.01 368.345 333.598 368.068C343.693 367.744 350.376 373.205 359.846 385.465C375.023 405.118 402.594 407.518 424.104 395.874C444.787 384.679 455.381 362.984 451.987 338.772C447.696 308.153 418.619 288.292 386.317 293.918C375.955 295.727 367.742 294.275 361.122 289.047C354.111 283.507 350.954 274.451 351.546 265.537C351.746 262.545 352.078 259.515 352.507 256.439C354.865 239.474 357.865 222.139 356.605 205.253C355.012 183.845 354.841 164.066 364.399 143.715C373.416 124.524 367.81 105.064 353.41 89.3845C339.671 74.4191 321.038 66.3096 302.495 73.8229C279.019 83.3371 256.856 81.0663 233.629 76.8295C229.832 76.1353 225.963 75.8614 222.357 75.7128C214.896 75.4065 207.405 75.6199 199.995 76.5861C154.403 82.5288 120.282 104.837 95.407 142.752Z" fill="#DB5F7F"/>
</g>
<path fill-rule="evenodd" clip-rule="evenodd" d="M408.695 268.704C393.84 271.774 379.723 262.654 376.768 248.073C373.72 233.016 383.731 218.28 398.891 215.511C413.559 212.832 427.819 222.493 430.509 236.939C433.204 251.41 423.418 265.662 408.695 268.704Z" fill="#DB5F7F"/>
<path fill-rule="evenodd" clip-rule="evenodd" d="M153.724 280.474C106.05 248.491 92.7876 185.415 123.72 137.802C155.663 88.6295 221.501 75.7736 269.171 109.399C315.308 141.938 327.509 206.872 296.232 253.41C264.906 300.028 200.971 312.17 153.724 280.474Z" fill="#993A50"/>
<path fill-rule="evenodd" clip-rule="evenodd" d="M144.882 207.456C123.365 193.274 117.593 164.977 131.826 143.457C146.526 121.232 176.469 115.192 197.977 130.111C218.794 144.554 224.074 173.69 209.689 194.729C195.28 215.801 166.205 221.512 144.882 207.456Z" fill="#EE7A5A"/>
</svg>
