<svg width="270" height="346" viewBox="0 0 270 346" fill="none" xmlns="http://www.w3.org/2000/svg">
<mask id="mask0" mask-type="alpha" maskUnits="userSpaceOnUse" x="1" y="1" width="335" height="344">
<path fill-rule="evenodd" clip-rule="evenodd" d="M132.559 344.906L1.72853 118.301L204.736 1.09414L335.567 227.699L132.559 344.906Z" fill="white"/>
</mask>
<g mask="url(#mask0)">
<path fill-rule="evenodd" clip-rule="evenodd" d="M64.2761 94.9396C58.7253 103.223 52.7945 110.515 43.8068 115.93C16.3462 132.475 17.6086 165.382 45.2596 180.336C52.6789 184.346 59.7885 190.032 65.0157 196.546C77.8346 212.521 92.9941 224.896 112.472 232.032C115.855 233.272 119.138 234.816 122.329 236.476C132.432 241.735 137.039 248.794 134.833 261.379C130.877 283.933 145.352 302.182 166.818 303.461C191.349 304.925 207.463 283.963 205.773 265.972C205.174 259.576 204.705 255.775 207.685 250.565C210.259 246.067 215.494 241.64 221.211 241.398C227.932 241.114 232.341 244.657 238.557 252.651C248.52 265.465 266.851 266.85 281.247 259.045C295.089 251.541 302.291 237.204 300.202 221.311C297.56 201.212 278.349 188.358 256.813 192.283C249.905 193.544 244.449 192.648 240.08 189.257C235.454 185.664 233.416 179.732 233.873 173.868C234.027 171.9 234.268 169.906 234.575 167.88C236.263 156.711 238.381 145.294 237.661 134.202C236.75 120.139 236.775 107.138 243.278 93.6923C249.412 81.0128 245.818 68.259 236.345 58.0517C227.307 48.3095 214.963 43.1086 202.571 48.1775C186.882 54.5963 172.148 53.2585 156.721 50.6356C154.199 50.2058 151.626 50.0528 149.227 49.9803C144.264 49.8311 139.278 50.0238 134.34 50.7108C103.958 54.9364 81.0952 69.8403 64.2761 94.9396Z" fill="#DB5F7F"/>
</g>
<path fill-rule="evenodd" clip-rule="evenodd" d="M270.989 176.307C261.054 178.474 251.742 172.657 249.926 163.148C248.055 153.329 254.885 143.58 265.02 141.607C274.826 139.699 284.229 145.868 285.868 155.291C287.511 164.731 280.836 174.16 270.989 176.307Z" fill="#DB5F7F"/>
<path fill-rule="evenodd" clip-rule="evenodd" d="M100.906 185.343C69.3827 164.634 60.9898 123.231 81.9187 91.6932C103.531 59.1226 147.461 50.2076 178.97 71.997C209.466 93.082 217.139 135.715 195.988 166.548C174.804 197.434 132.146 205.866 100.906 185.343Z" fill="#993A50"/>
<path fill-rule="evenodd" clip-rule="evenodd" d="M95.1574 137.742C80.9011 128.522 77.2285 109.896 86.8499 95.6158C96.7873 80.8677 116.786 76.6988 131.031 86.4048C144.82 95.8011 148.159 114.983 138.439 128.947C128.703 142.933 109.285 146.88 95.1574 137.742Z" fill="#EE7A5A"/>
</svg>
