<svg id="button-get-started" viewBox="0 0 164 50" fill="none" xmlns="http://www.w3.org/2000/svg">
<path d="M161.771 40.5L151.809 48.5" stroke="black"/>
<path d="M154.561 40.5L144.6 48.5" stroke="black"/>
<path d="M147.561 40.5L137.6 48.5" stroke="black"/>
<path d="M140.561 40.5L130.6 48.5" stroke="black"/>
<path d="M133.561 40.5L123.6 48.5" stroke="black"/>
<path d="M126.561 40.5L116.6 48.5" stroke="black"/>
<path d="M119.561 40.5L109.6 48.5" stroke="black"/>
<path d="M112.561 40.5L102.6 48.5" stroke="black"/>
<path d="M105.561 40.5L95.5995 48.5" stroke="black"/>
<path d="M98.5614 40.5L88.5995 48.5" stroke="black"/>
<path d="M91.5614 40.5L81.5995 48.5" stroke="black"/>
<path d="M84.5614 40.5L74.5995 48.5" stroke="black"/>
<path d="M77.5614 40.5L67.5995 48.5" stroke="black"/>
<path d="M70.5614 40.5L60.5995 48.5" stroke="black"/>
<path d="M63.5614 40.5L53.5995 48.5" stroke="black"/>
<path d="M56.5614 40.5L46.5995 48.5" stroke="black"/>
<path d="M49.5614 40.5L39.5995 48.5" stroke="black"/>
<path d="M42.5614 40.5L32.5995 48.5" stroke="black"/>
<path d="M35.5614 40.5L25.5995 48.5" stroke="black"/>
<path d="M28.5614 40.5L18.5995 48.5" stroke="black"/>
<path d="M21.5614 40.5L11.5995 48.5" stroke="black"/>
<path d="M14.5614 40.5L4.59955 48.5" stroke="black"/>
<path d="M11.5614 35.5938L1.59955 43.5938" stroke="black"/>
<path d="M11.5614 28.5938L1.59955 36.5938" stroke="black"/>
<path d="M11.5614 21.5938L1.59955 29.5938" stroke="black"/>
<path d="M11.5614 14.5938L1.59955 22.5938" stroke="black"/>
<path d="M11.5614 7.59375L1.59955 15.5938" stroke="black"/>
<path d="M11.5614 0.59375L1.59955 8.59375" stroke="black"/>
<rect x="8.30933" width="155" height="42" fill="#F7B334"/>
</svg>
