<svg id="header_logo" viewBox="0 0 257 219" xmlns="http://www.w3.org/2000/svg">
<path d="M63.7604 39.8459L66.9783 37.9985C68.0511 37.3823 68.2531 36.6925 67.0662 36.0143C65.8788 35.3365 64.5525 35.4782 63.3938 36.1445L60.3405 37.9001L63.7604 39.8459ZM70.2457 43.5373L73.6151 41.6001C74.8559 40.8868 75.1852 40.077 73.8744 39.3281C72.5428 38.5673 71.0883 38.7589 69.9091 39.4367L66.4917 41.4003L70.2457 43.5373ZM77.3103 37.547C80.2839 39.2455 79.7832 41.3508 76.8451 43.0396L69.9111 47L54.3093 38.1278L60.8262 34.4018C63.6157 32.798 67.0288 32.4099 69.9655 34.0867C71.4418 34.9302 71.8017 35.8702 71.5137 36.704C73.1479 36.2857 75.3503 36.4274 77.3103 37.547Z" fill="#010101"/>
<path d="M82.0655 29.8968C85.2434 31.8248 89.1343 31.8147 91.9453 30.0982C94.7114 28.409 94.7153 26.0408 91.537 24.1128C88.3389 22.1722 84.4725 22.1975 81.7063 23.8867C78.8954 25.6032 78.867 27.9562 82.0655 29.8968ZM94.7798 22.1327C99.6309 25.0756 99.3415 29.0211 94.7707 31.8122C90.1551 34.6311 83.6939 34.8076 78.8434 31.8648C73.9923 28.9214 74.2615 24.9885 78.8771 22.1702C83.4479 19.3786 89.9293 19.1894 94.7798 22.1327Z" fill="#010101"/>
<mask mask-type="alpha" maskUnits="userSpaceOnUse" x="90" y="8" >
<path d="M90.624 8.1685H120.185V25.773H90.624V8.1685Z" />
</mask>
<path d="M120.185 17.2395L116.477 19.452L107.245 18.0595L109.576 23.5695L105.882 25.773L102.765 18.219L90.624 16.3635L94.3116 14.163L102.997 15.5245L100.687 10.36L104.36 8.1685L107.481 15.3865L120.185 17.2395Z" fill="#010101"/>
<path d="M63.6248 60.7201V59.4398C63.6313 55.7878 61.9748 50.8316 58.7434 48.9111C55.5162 46.9926 53.897 48.0894 53.9068 51.2288L53.9161 54.8823L63.6248 60.7201ZM58.7318 45.2425C63.4453 48.0441 66.2758 53.5134 66.2921 58.621L66.3093 66L51.3328 57.0038L51.3095 49.6803C51.2932 44.5727 54.0182 42.4405 58.7318 45.2425Z" fill="#010101"/>
<path d="M66.3093 73.4916V76.7684L57.0744 79.2315L66.3093 85.0751V89L51.3093 79.5084V76.2681L60.5761 73.7859L51.3093 67.9223V64L66.3093 73.4916Z" fill="#010101"/>
<path d="M60.8394 101.278V96.6286L56.0466 96.2203L60.8394 101.278ZM66.3093 97.1794L63.3652 96.8264V103.986L66.3093 107.12L66.2995 111L51.3093 95.062V92L66.3093 93.1541V97.1794Z" fill="#010101"/>
<path d="M66.3093 115.753V128L51.3093 118.435V114.488L63.5557 122.296V114L66.3093 115.753Z" fill="#010101"/>
<path d="M0.309326 8L46.0886 34.5"/>
<path d="M76.3093 53L122.92 81.75"/>
<path d="M256.157 0.9375L122.699 80.75"/>
<path class="header__logo-svg-path3" d="M122.809 81L123.309 218.5"/>
</svg>
