<svg display="none" xmlns="http://www.w3.org/2000/svg">

<symbol id="login" viewBox="0 0 17 18">
<path id="Stroke 1" fill-rule="evenodd" clip-rule="evenodd" d="M16.3136 17.2603C16.3136 12.9103 12.7866 9.3833 8.43657 9.3833C4.08657 9.3833 0.55957 12.9103 0.55957 17.2603H16.3136Z" stroke="#1E1E1C"/>
<path id="Stroke 3" fill-rule="evenodd" clip-rule="evenodd" d="M12.5031 5.3166C12.5031 7.5626 10.6821 9.3836 8.43612 9.3836C6.19012 9.3836 4.37012 7.5626 4.37012 5.3166C4.37012 3.0706 6.19012 1.2496 8.43612 1.2496C10.6821 1.2496 12.5031 3.0706 12.5031 5.3166Z" stroke="#1E1E1C"/>
</symbol>

<symbol id="header-bg-top" viewBox="0 0 1092 123" >
<g id="MAIN-PAGE" stroke="none" stroke-width="1" fill="none" fill-rule="evenodd">
        <g id="Main-Page" transform="translate(-337.000000, -101.000000)" fill="#F7B334">
            <g id="Portada" transform="translate(-60.000000, 30.000000)">
                <polygon id="Rectangle" points="639.309265 71 1488.30927 71 1246.30927 194 397.309265 194"></polygon>
            </g>
        </g>
    </g>
</symbol>

<symbol id="header-bg-bottom" viewBox="0 0 1060 104">
<path fill-rule="evenodd" clip-rule="evenodd" d="M210.309 0H1059.31L849.599 104H0.599365L210.309 0Z" fill="#E0E0E0"/>
</symbol>

<symbol id="benefits-bg-left" viewBox="0 0 1440 540">
<path d="M0.563014 3.44907L492.564 297.08" stroke="black"/>
<path d="M492.499 296.869L96.0315 538.302" stroke="black"/>
<path d="M492.5 408.684L493 296.684" stroke="black"/>
</symbol>

<symbol id="benefits-bg-right" viewBox="0 0 1440 540">
<path d="M883.5 274.684L1116.56 408.08" stroke="black"/>
<path d="M720.25 130.388L721 2.68439" stroke="black"/>
<path fill-rule="evenodd" clip-rule="evenodd" d="M1043.96 3.18439L904.5 2.68439L819.757 3.18439H721L1118 241.08L1272.92 140.813L1043.96 3.18439Z" fill="#F6F0E9"/>
<path d="M1117.13 408.333L1117.5 240.684" stroke="black"/>
<path d="M1272.31 308.656L1272.69 141.008" stroke="black"/>
</symbol>

<symbol id="courses-title-1" viewBox="0 0 254 79">
<path fill-rule="evenodd" clip-rule="evenodd" d="M69.5449 48.9003H75.2729C80.1829 48.9003 83.1129 52.1473 83.1129 57.5863C83.1129 63.0253 80.1699 66.2723 75.2399 66.2723H69.5449V48.9003ZM75.2729 45.2773H65.4009V69.8943H75.2079C82.4339 69.8943 87.2889 64.9483 87.2889 57.5863C87.2889 50.2243 82.4599 45.2773 75.2729 45.2773Z" fill="#F5EFE8"/>
<path fill-rule="evenodd" clip-rule="evenodd" d="M96.3217 54.8312V52.9152H92.4717V69.8942H96.4187V60.6732C96.4187 58.2192 98.2247 56.5692 100.912 56.5692H101.067V52.7202H100.912C98.2217 52.7202 96.9127 53.9522 96.3217 54.8312Z" fill="#F5EFE8"/>
<path fill-rule="evenodd" clip-rule="evenodd" d="M110.498 66.8573C108.918 66.8573 108.15 66.2913 108.15 65.1263C108.15 63.8933 109.069 63.2413 110.963 63.1353L114.276 62.9173V63.3383C114.276 65.6073 112.934 66.8573 110.498 66.8573ZM111.408 52.6223C108.074 52.6223 104.625 54.8803 104.625 58.6583V58.8073L108.605 58.9483V58.7893C108.605 57.4963 109.349 56.1153 111.44 56.1153C113.301 56.1153 114.244 57.2333 114.244 59.4393V59.7803L110.424 60.0003C106.274 60.2373 104.169 61.9833 104.169 65.1913C104.169 68.2933 106.358 70.2193 109.881 70.2193C111.525 70.2193 112.992 69.6723 114.244 68.5913V69.8943H118.225V59.3733C118.225 55.0203 115.803 52.6223 111.408 52.6223Z" fill="#F5EFE8"/>
<path fill-rule="evenodd" clip-rule="evenodd" d="M131.88 66.7921C128.993 66.7921 127.127 64.6841 127.127 61.4211C127.127 58.1281 128.948 56.0821 131.88 56.0821C134.692 56.0821 136.438 57.9661 136.438 60.9981V61.8761C136.438 64.9081 134.692 66.7921 131.88 66.7921ZM136.634 54.9061C135.543 53.4671 133.589 52.6221 131.295 52.6221C126.402 52.6221 123.114 56.1581 123.114 61.4211C123.114 66.6831 126.402 70.2191 131.295 70.2191C133.454 70.2191 135.339 69.4741 136.438 68.2051V70.8131C136.438 73.4841 134.759 75.0791 131.945 75.0791C129.543 75.0791 127.857 73.9211 127.548 72.0551L127.525 71.9221L123.572 72.0631L123.604 72.2381C124.318 76.2011 127.394 78.4741 132.043 78.4741C137.111 78.4741 140.387 75.3651 140.387 70.5531V52.9151H136.634V54.9061Z" fill="#F5EFE8"/>
<path fill-rule="evenodd" clip-rule="evenodd" d="M159.439 44.3354H154.988L151.909 50.5254H155.098L159.439 44.3354Z" fill="#F5EFE8"/>
<path fill-rule="evenodd" clip-rule="evenodd" d="M153.686 56.0498C156.077 56.0498 157.527 57.4038 157.684 59.7718H149.467C149.706 57.4368 151.274 56.0498 153.686 56.0498ZM153.718 52.6228C148.571 52.6228 145.244 56.0758 145.244 61.4208C145.244 66.6838 148.689 70.2198 153.816 70.2198C157.577 70.2198 160.812 67.9268 161.506 64.7688L161.545 64.5918L157.57 64.3808L157.535 64.4958C157.092 65.9558 155.736 66.7598 153.718 66.7598C151.312 66.7598 149.683 65.3008 149.434 62.9398H161.672V60.9978C161.672 55.8318 158.624 52.6228 153.718 52.6228Z" fill="#F5EFE8"/>
<path fill-rule="evenodd" clip-rule="evenodd" d="M174.126 56.0498C176.517 56.0498 177.967 57.4038 178.124 59.7718H169.907C170.146 57.4368 171.714 56.0498 174.126 56.0498ZM174.158 52.6228C169.011 52.6228 165.684 56.0758 165.684 61.4208C165.684 66.6838 169.129 70.2198 174.256 70.2198C178.017 70.2198 181.252 67.9268 181.946 64.7688L181.985 64.5918L178.01 64.3808L177.975 64.4958C177.532 65.9558 176.176 66.7598 174.158 66.7598C171.752 66.7598 170.123 65.3008 169.874 62.9398H182.112V60.9978C182.112 55.8318 179.064 52.6228 174.158 52.6228Z" fill="#F5EFE8"/>
<mask id="mask0" mask-type="alpha" maskUnits="userSpaceOnUse" x="0" y="0" width="254" height="79">
<path fill-rule="evenodd" clip-rule="evenodd" d="M0 78.474H253.441V0.802002H0V78.474Z" fill="white"/>
</mask>
<g mask="url(#mask0)">
<path fill-rule="evenodd" clip-rule="evenodd" d="M187.164 69.8942H191.112V44.3352H187.164V69.8942Z" fill="#F5EFE8"/>
<path fill-rule="evenodd" clip-rule="evenodd" d="M202.494 66.8573C200.914 66.8573 200.146 66.2913 200.146 65.1263C200.146 63.8933 201.065 63.2413 202.959 63.1353L206.272 62.9173V63.3383C206.272 65.6073 204.93 66.8573 202.494 66.8573ZM203.404 52.6223C200.07 52.6223 196.621 54.8803 196.621 58.6583V58.8073L200.601 58.9483V58.7893C200.601 57.4963 201.345 56.1153 203.436 56.1153C205.297 56.1153 206.24 57.2333 206.24 59.4393V59.7803L202.42 60.0003C198.27 60.2373 196.165 61.9833 196.165 65.1913C196.165 68.2933 198.354 70.2193 201.877 70.2193C203.521 70.2193 204.988 69.6723 206.24 68.5913V69.8943H210.221V59.3733C210.221 55.0203 207.799 52.6223 203.404 52.6223Z" fill="#F5EFE8"/>
<path fill-rule="evenodd" clip-rule="evenodd" d="M224.624 52.6226C222.565 52.6226 220.91 53.3776 219.903 54.7606V52.9146H216.15V69.8946H220.098V60.2186C220.098 57.9536 221.659 56.3096 223.811 56.3096C225.961 56.3096 227.297 57.7956 227.297 60.1866V69.8946H231.277V59.6986C231.277 55.3996 228.666 52.6226 224.624 52.6226Z" fill="#F5EFE8"/>
<path fill-rule="evenodd" clip-rule="evenodd" d="M244.934 66.7597C242.002 66.7597 240.181 64.7137 240.181 61.4207C240.181 58.1587 242.047 56.0497 244.934 56.0497C247.746 56.0497 249.492 57.9337 249.492 60.9657V61.8437C249.492 64.8757 247.746 66.7597 244.934 66.7597ZM249.492 44.3357V54.6367C248.393 53.3687 246.508 52.6227 244.349 52.6227C239.456 52.6227 236.168 56.1587 236.168 61.4207C236.168 66.6837 239.456 70.2197 244.349 70.2197C246.643 70.2197 248.597 69.3747 249.688 67.9367V69.8947H253.441V44.3357H249.492Z" fill="#F5EFE8"/>
<path fill-rule="evenodd" clip-rule="evenodd" d="M27.4881 43.0551C27.6611 43.1551 27.8151 43.3501 28.0281 43.6821C28.2951 44.1031 28.5751 44.3811 28.9081 44.5731C28.9621 44.6041 29.0191 44.6341 29.0771 44.6611C29.1711 44.7071 29.2541 44.7491 29.3261 44.7911C29.7191 45.0171 29.8171 45.2291 29.9471 45.8571C30.0471 46.3421 30.2361 46.7661 30.5851 47.1901C31.1191 47.8381 31.1731 48.0541 30.9351 48.5621C30.7831 48.8911 30.7821 49.2731 30.9361 49.7751C31.1621 50.5211 31.1071 50.6981 30.6001 50.7251C30.2201 50.7441 30.0211 50.9631 29.9191 51.3701C29.8121 51.7901 29.6641 51.8831 29.3171 51.6821C29.2481 51.6421 29.1721 51.5911 29.0871 51.5301C29.0101 51.4741 28.9371 51.4251 28.8661 51.3841C28.5561 51.2051 28.2901 51.1661 28.0321 51.2701C27.7961 51.3611 27.6351 51.3851 27.4791 51.2951C27.3191 51.2031 27.1511 50.9891 26.9161 50.6251C26.6591 50.2251 26.3941 49.9571 26.0841 49.7781C26.0131 49.7371 25.9391 49.7011 25.8631 49.6681C25.7781 49.6321 25.7021 49.5951 25.6331 49.5551C25.2851 49.3541 25.1391 49.0931 25.0351 48.5501C24.9351 48.0271 24.7381 47.5781 24.3591 47.1221C23.8551 46.5111 23.8001 46.2711 24.0301 45.7871C24.1871 45.4661 24.1881 45.0831 24.0371 44.5791C23.8031 43.7991 23.8581 43.6461 24.3951 43.6161C24.7451 43.5961 24.9351 43.3901 25.0381 43.0231C25.1711 42.5471 25.2701 42.4491 25.6621 42.6751C25.7351 42.7171 25.8171 42.7701 25.9121 42.8341C25.9701 42.8731 26.0261 42.9091 26.0811 42.9411C26.4141 43.1331 26.6941 43.1781 26.9621 43.0671C27.1771 42.9821 27.3311 42.9651 27.4881 43.0551Z" fill="#F5EFE8"/>
<path fill-rule="evenodd" clip-rule="evenodd" d="M27.5243 33.997C29.5003 35.138 31.1003 37.91 31.0943 40.181C31.0883 42.456 29.4773 43.369 27.5013 42.228C25.5203 41.085 23.9203 38.318 23.9263 36.042C23.9333 33.771 25.5443 32.854 27.5243 33.997Z" fill="#F5EFE8"/>
<path fill-rule="evenodd" clip-rule="evenodd" d="M3.74587 20.268C5.72587 21.411 7.32187 24.181 7.31587 26.452C7.30987 28.727 5.70287 29.643 3.72287 28.499C1.74587 27.358 0.145872 24.591 0.151872 22.316C0.158872 20.045 1.76987 19.127 3.74587 20.268Z" fill="#F5EFE8"/>
<path fill-rule="evenodd" clip-rule="evenodd" d="M11.6704 52.0764C13.6504 53.2194 15.2474 55.9894 15.2404 58.2604C15.2344 60.5364 13.6274 61.4514 11.6474 60.3074C9.67142 59.1664 8.07042 56.4004 8.07742 54.1244C8.08342 51.8534 9.69442 50.9354 11.6704 52.0764Z" fill="#F5EFE8"/>
<path fill-rule="evenodd" clip-rule="evenodd" d="M3.78222 47.522C3.94222 47.614 4.09822 47.806 4.31622 48.15C4.58722 48.572 4.87022 48.851 5.20922 49.047C5.25922 49.076 5.31122 49.103 5.36422 49.129C5.46122 49.175 5.54622 49.218 5.62022 49.261C6.00522 49.483 6.10522 49.7 6.23522 50.32C6.33522 50.805 6.52322 51.229 6.87222 51.654C7.40722 52.302 7.46122 52.517 7.22322 53.03C7.07022 53.354 7.06922 53.736 7.22422 54.243C7.45022 54.984 7.39422 55.166 6.88822 55.188C6.50822 55.207 6.30922 55.431 6.20622 55.838C6.10022 56.252 5.95322 56.348 5.60922 56.15C5.54022 56.109 5.46222 56.057 5.37422 55.993C5.29822 55.937 5.22522 55.888 5.15322 55.847C4.84222 55.668 4.57422 55.628 4.32022 55.733C4.08322 55.825 3.92322 55.848 3.76722 55.758C3.60722 55.666 3.43922 55.452 3.20322 55.089C2.94722 54.688 2.68222 54.42 2.37222 54.241C2.30122 54.2 2.22722 54.164 2.15122 54.132C2.06322 54.095 1.98422 54.057 1.91422 54.016C1.56922 53.817 1.42622 53.554 1.32222 53.018C1.22322 52.495 1.02622 52.042 0.647222 51.585C0.142222 50.979 0.0882218 50.734 0.317222 50.255C0.475222 49.929 0.476222 49.546 0.325222 49.047C0.0912218 48.262 0.146222 48.11 0.682222 48.08C1.03322 48.059 1.22322 47.854 1.32522 47.486C1.45822 47.017 1.55722 46.915 1.94322 47.138C2.01722 47.181 2.10222 47.235 2.20022 47.302C2.25322 47.338 2.30522 47.37 2.35622 47.4C2.69422 47.595 2.97822 47.644 3.25022 47.535C3.47022 47.444 3.62622 47.432 3.78222 47.522Z" fill="#F5EFE8"/>
<path fill-rule="evenodd" clip-rule="evenodd" d="M7.72504 31.4595C11.98 33.9165 15.414 39.8635 15.4 44.7525C15.386 49.6375 11.93 51.6115 7.67504 49.1545C3.42404 46.7005 -0.0139574 40.7465 4.2606e-05 35.8615C0.0140426 30.9725 3.47404 29.0055 7.72504 31.4595Z" fill="#F5EFE8"/>
<path fill-rule="evenodd" clip-rule="evenodd" d="M19.5845 47.5713C21.5605 48.7123 23.1615 51.4793 23.1545 53.7553C23.1485 56.0263 21.5375 56.9433 19.5615 55.8023C17.5805 54.6593 15.9845 51.8903 15.9915 49.6193C15.9975 47.3433 17.6035 46.4283 19.5845 47.5713Z" fill="#F5EFE8"/>
<path fill-rule="evenodd" clip-rule="evenodd" d="M19.6101 38.5071C21.5861 39.6481 23.1871 42.4151 23.1801 44.6911C23.1741 46.9621 21.5631 47.8791 19.5871 46.7381C17.6061 45.5951 16.0101 42.8261 16.0171 40.5551C16.0231 38.2791 17.6301 37.3641 19.6101 38.5071Z" fill="#F5EFE8"/>
<path fill-rule="evenodd" clip-rule="evenodd" d="M19.636 29.4427C21.612 30.5837 23.212 33.3557 23.206 35.6267C23.2 37.9017 21.589 38.8157 19.613 37.6737C17.632 36.5307 16.036 33.7667 16.043 31.4907C16.049 29.2197 17.656 28.2997 19.636 29.4427Z" fill="#F5EFE8"/>
<path fill-rule="evenodd" clip-rule="evenodd" d="M27.4474 61.185C29.4234 62.326 31.0244 65.098 31.0174 67.369C31.0114 69.644 29.4004 70.557 27.4244 69.416C25.4434 68.273 23.8434 65.506 23.8494 63.23C23.8564 60.959 25.4674 60.042 27.4474 61.185Z" fill="#F5EFE8"/>
<path fill-rule="evenodd" clip-rule="evenodd" d="M27.473 52.1257C29.449 53.2667 31.05 56.0337 31.043 58.3097C31.037 60.5807 29.426 61.4977 27.45 60.3567C25.469 59.2137 23.869 56.4417 23.875 54.1707C23.882 51.8957 25.493 50.9827 27.473 52.1257Z" fill="#F5EFE8"/>
<path fill-rule="evenodd" clip-rule="evenodd" d="M58.4464 15.4053C60.4264 16.5483 60.4414 18.4003 58.4744 19.5433C56.5104 20.6843 53.3094 20.6843 51.3294 19.5413C49.3534 18.4003 49.3424 16.5463 51.3064 15.4053C53.2734 14.2623 56.4704 14.2643 58.4464 15.4053Z" fill="#F5EFE8"/>
<path fill-rule="evenodd" clip-rule="evenodd" d="M11.1431 15.3194C13.1241 16.4624 13.1341 18.3114 11.1661 19.4554C9.20314 20.5964 6.00714 20.5984 4.02614 19.4554C2.05014 18.3144 2.03914 16.4604 4.00314 15.3194C5.97014 14.1764 9.16714 14.1784 11.1431 15.3194Z" fill="#F5EFE8"/>
<path fill-rule="evenodd" clip-rule="evenodd" d="M26.8131 6.21319C28.7931 7.35619 28.8041 9.20519 26.8361 10.3492C24.8731 11.4902 21.6771 11.4922 19.6961 10.3492C17.7201 9.20819 17.7091 7.35419 19.6731 6.21319C21.6401 5.07019 24.8371 5.07219 26.8131 6.21319Z" fill="#F5EFE8"/>
<path fill-rule="evenodd" clip-rule="evenodd" d="M26.8685 15.3194C28.8485 16.4624 28.8555 18.3144 26.8915 19.4554C24.9245 20.5984 21.7325 20.5984 19.7515 19.4554C17.7755 18.3144 17.7605 16.4634 19.7285 15.3194C21.6915 14.1784 24.8925 14.1784 26.8685 15.3194Z" fill="#F5EFE8"/>
<path fill-rule="evenodd" clip-rule="evenodd" d="M34.7012 10.7674C36.6812 11.9104 36.6922 13.7604 34.7242 14.9034C32.7612 16.0444 29.5652 16.0464 27.5842 14.9034C25.6082 13.7624 25.5972 11.9084 27.5612 10.7674C29.5282 9.62439 32.7252 9.62639 34.7012 10.7674Z" fill="#F5EFE8"/>
<path fill-rule="evenodd" clip-rule="evenodd" d="M50.4267 10.7674C52.4027 11.9084 52.4177 13.7594 50.4497 14.9034C48.4867 16.0444 45.2857 16.0444 43.3097 14.9034C41.3287 13.7604 41.3227 11.9084 43.2867 10.7674C45.2537 9.62441 48.4457 9.62441 50.4267 10.7674Z" fill="#F5EFE8"/>
<path fill-rule="evenodd" clip-rule="evenodd" d="M34.6502 1.65875C36.6302 2.80175 36.6412 4.65075 34.6732 5.79475C32.7102 6.93575 29.5132 6.93775 27.5332 5.79475C25.5572 4.65375 25.5462 2.79975 27.5102 1.65875C29.4772 0.515746 32.6742 0.517746 34.6502 1.65875Z" fill="#F5EFE8"/>
<path fill-rule="evenodd" clip-rule="evenodd" d="M34.9024 29.054C36.8824 30.197 36.8974 32.049 34.9304 33.192C32.9664 34.333 29.7664 34.333 27.7854 33.19C25.8094 32.049 25.7984 30.195 27.7624 29.054C29.7294 27.911 32.9264 27.913 34.9024 29.054Z" fill="#F5EFE8"/>
<path fill-rule="evenodd" clip-rule="evenodd" d="M19.0313 19.8736C21.0113 21.0166 21.0223 22.8666 19.0543 24.0096C17.0913 25.1506 13.8953 25.1526 11.9143 24.0096C9.93832 22.8686 9.92732 21.0146 11.8913 19.8736C13.8583 18.7306 17.0553 18.7326 19.0313 19.8736Z" fill="#F5EFE8"/>
<path fill-rule="evenodd" clip-rule="evenodd" d="M26.9198 24.4281C28.8958 25.5691 28.9108 27.4201 26.9428 28.5641C24.9798 29.7051 21.7788 29.7051 19.8028 28.5641C17.8228 27.4201 17.8158 25.5691 19.7798 24.4281C21.7468 23.2851 24.9398 23.2851 26.9198 24.4281Z" fill="#F5EFE8"/>
<path fill-rule="evenodd" clip-rule="evenodd" d="M46.9795 17.5635C51.2455 20.0265 51.2675 24.0145 47.0295 26.4775C42.7955 28.9375 35.9115 28.9375 31.6455 26.4745C27.3835 24.0145 27.3605 20.0265 31.5955 17.5665C35.8335 15.1035 42.7175 15.1025 46.9795 17.5635Z" fill="#F5EFE8"/>
<path fill-rule="evenodd" clip-rule="evenodd" d="M18.9778 10.7668C19.1378 10.8588 19.2058 11.0008 19.2328 11.2338C19.2738 11.5268 19.4608 11.7468 19.7968 11.9408C19.8488 11.9708 19.9048 12.0008 19.9638 12.0298C20.0688 12.0798 20.1588 12.1258 20.2328 12.1688C20.6178 12.3908 20.5808 12.5288 20.2368 12.8758C19.9698 13.1488 19.8868 13.4158 20.0488 13.7328C20.2908 14.2118 20.1778 14.3358 19.3898 14.5258C18.8778 14.6468 18.5508 14.8368 18.3468 15.1358C18.0468 15.5738 17.8038 15.6468 17.0308 15.5158C16.4458 15.4158 15.9548 15.4718 15.4478 15.6448C14.9298 15.8238 14.6328 15.8318 14.2918 15.6348C14.2218 15.5938 14.1498 15.5448 14.0728 15.4868C14.0088 15.4378 13.9408 15.3928 13.8708 15.3528C13.5588 15.1718 13.1878 15.0748 12.7138 15.0508C12.2818 15.0338 12.0248 14.9978 11.8608 14.9078C11.7088 14.8148 11.6368 14.6618 11.6018 14.4088C11.5588 14.1348 11.3928 13.9218 11.0788 13.7408C11.0088 13.6998 10.9308 13.6608 10.8458 13.6228C10.7448 13.5788 10.6598 13.5378 10.5888 13.4968C10.2478 13.2998 10.2598 13.1278 10.5678 12.8278C10.8688 12.5358 10.9598 12.2488 10.7898 11.9128C10.5558 11.4628 10.6808 11.3218 11.4408 11.1488C11.9518 11.0268 12.2788 10.8378 12.4918 10.5428C12.8118 10.0828 13.0258 10.0178 13.8538 10.1558C14.4008 10.2488 14.8628 10.1998 15.3318 10.0438C15.9338 9.84583 16.1698 9.82283 16.5538 10.0448C16.6268 10.0868 16.7068 10.1388 16.7948 10.1998C16.8448 10.2338 16.8958 10.2658 16.9478 10.2958C17.2838 10.4908 17.6648 10.5978 18.1708 10.6208C18.5738 10.6358 18.8218 10.6768 18.9778 10.7668Z" fill="#F5EFE8"/>
</g>
</symbol>

<symbol id="courses-title-2" viewBox="0 0 226 73">
<path fill-rule="evenodd" clip-rule="evenodd" d="M1.81426 58.9068C0.815259 58.3298 0.00325893 58.7928 0.000258928 59.9378C-0.00374107 61.0858 0.804259 62.4808 1.80226 63.0578C2.79926 63.6328 3.61126 63.1728 3.61426 62.0248C3.61826 60.8798 2.81026 59.4818 1.81426 58.9068Z" fill="#F5EFE8"/>
<path fill-rule="evenodd" clip-rule="evenodd" d="M50.6481 10.2254C51.6471 10.8024 53.2581 10.8004 54.2481 10.2254C55.2411 9.64839 55.2361 8.71639 54.2371 8.13939C53.2411 7.56439 51.6281 7.56339 50.6361 8.13939C49.6461 8.71539 49.6511 9.65039 50.6481 10.2254Z" fill="#F5EFE8"/>
<mask id="mask0" mask-type="alpha" maskUnits="userSpaceOnUse" x="0" y="1" width="60" height="72">
<path fill-rule="evenodd" clip-rule="evenodd" d="M0 1.87305H59.7124V72.328H0V1.87305Z" fill="white"/>
</mask>
<g mask="url(#mask0)">
<path fill-rule="evenodd" clip-rule="evenodd" d="M57.8125 16.1471L48.5745 10.7671C47.7875 10.3081 47.4305 9.31306 47.8395 8.50006C48.3415 7.50106 47.9125 6.38006 46.5455 5.59006C45.4165 4.93906 43.8975 4.65906 42.4315 4.74706C40.0885 4.88906 37.7475 4.46106 35.7195 3.28006L34.5335 2.58906C32.8995 1.63806 30.8815 1.63406 29.2445 2.57906L2.63551 17.9421C1.00451 18.8841 -0.000488281 20.6241 -0.000488281 22.5071V53.0161C-0.000488281 54.8941 0.998512 56.6301 2.62251 57.5741L4.75351 58.8131C5.73551 59.3991 6.52651 60.7711 6.52251 61.9031C6.52151 62.5211 6.28451 62.9401 5.91151 63.1051C5.14851 63.4271 4.66451 64.2701 4.66051 65.5181C4.65451 67.7981 6.24651 70.5671 8.22651 71.7341C10.3925 73.0111 11.8935 72.1861 11.8905 69.6721C11.8885 68.4061 11.3935 66.9881 10.6165 65.7801C10.2855 65.2121 10.0815 64.5711 10.0825 63.9921C10.0855 62.8591 10.8545 62.3801 11.8365 62.9291L27.2405 71.8811C29.2115 73.0261 31.6835 71.6041 31.6835 69.3251V40.9161C31.6835 39.0341 32.6855 37.2951 34.3145 36.3531L57.8035 22.7631C60.3445 21.2921 60.3495 17.6251 57.8125 16.1471Z" fill="#F5EFE8"/>
</g>
<mask id="mask1" mask-type="alpha" maskUnits="userSpaceOnUse" x="64" y="47" width="25" height="26">
<path fill-rule="evenodd" clip-rule="evenodd" d="M64.728 47.1938H88.605V72.5786H64.728V47.1938Z" fill="white"/>
</mask>
<g mask="url(#mask1)">
<path fill-rule="evenodd" clip-rule="evenodd" d="M84.191 63.1238C83.541 66.6838 80.84 68.8088 76.964 68.8088C72.119 68.8088 68.989 65.3068 68.989 59.8858C68.989 54.4658 72.106 50.9638 76.931 50.9638C80.855 50.9638 83.568 53.1738 84.191 56.8758L84.214 57.0168L88.568 56.6298L88.544 56.4688C87.748 50.9208 83.134 47.1938 77.062 47.1938C69.569 47.1938 64.728 52.1758 64.728 59.8858C64.728 67.4778 69.698 72.5788 77.094 72.5788C83.133 72.5788 87.64 69.0298 88.577 63.5368L88.605 63.3708L84.216 62.9848L84.191 63.1238Z" fill="#F5EFE8"/>
</g>
<path fill-rule="evenodd" clip-rule="evenodd" d="M101.677 69.1024C98.7165 69.1024 96.8035 66.9974 96.8035 63.7394C96.8035 60.4614 98.7165 58.3424 101.677 58.3424C104.592 58.3424 106.549 60.5114 106.549 63.7394C106.549 66.9464 104.592 69.1024 101.677 69.1024ZM101.677 54.8994C96.4335 54.8994 92.7715 58.5344 92.7715 63.7394C92.7715 68.9434 96.4335 72.5784 101.677 72.5784C106.901 72.5784 110.55 68.9434 110.55 63.7394C110.55 58.5344 106.901 54.8994 101.677 54.8994Z" fill="#F5EFE8"/>
<path fill-rule="evenodd" clip-rule="evenodd" d="M124.172 54.8994C122.103 54.8994 120.44 55.6574 119.429 57.0474V55.1934H115.658V72.2524H119.624V62.5304C119.624 60.2554 121.193 58.6034 123.355 58.6034C125.515 58.6034 126.857 60.0964 126.857 62.4984V72.2524H130.856V62.0084C130.856 57.6894 128.233 54.8994 124.172 54.8994Z" fill="#F5EFE8"/>
<path fill-rule="evenodd" clip-rule="evenodd" d="M144.185 46.4102C142.226 46.4102 140.578 47.0232 139.419 48.1822C138.249 49.3512 137.63 51.0282 137.63 53.0302V55.1932H134.463V58.6692H137.63V72.2522H141.597V58.6692H145.711V55.1932H141.597V52.9312C141.597 51.1012 142.766 49.9192 144.576 49.9192C145.025 49.9192 145.307 49.9502 145.605 49.9832L145.777 50.0022V46.5302L145.645 46.5102C145.178 46.4382 144.77 46.4102 144.185 46.4102Z" fill="#F5EFE8"/>
<mask id="mask2" mask-type="alpha" maskUnits="userSpaceOnUse" x="0" y="1" width="226" height="72">
<path fill-rule="evenodd" clip-rule="evenodd" d="M0 72.5786H225.21V1.87256H0V72.5786Z" fill="white"/>
</mask>
<g mask="url(#mask2)">
<path fill-rule="evenodd" clip-rule="evenodd" d="M148.536 72.2526H152.503V55.1936H148.536V72.2526Z" fill="#F5EFE8"/>
<path fill-rule="evenodd" clip-rule="evenodd" d="M150.52 47.0957C149.175 47.0957 148.079 48.1907 148.079 49.5357C148.079 50.9047 149.152 51.9757 150.52 51.9757C151.883 51.9757 152.993 50.8807 152.993 49.5357C152.993 48.1907 151.883 47.0957 150.52 47.0957Z" fill="#F5EFE8"/>
<path fill-rule="evenodd" clip-rule="evenodd" d="M158.624 72.2525H162.59V46.5735H158.624V72.2525Z" fill="#F5EFE8"/>
<path fill-rule="evenodd" clip-rule="evenodd" d="M174.025 69.2007C172.437 69.2007 171.666 68.6317 171.666 67.4607C171.666 66.2227 172.589 65.5677 174.492 65.4607L177.821 65.2427V65.6657C177.821 67.9447 176.473 69.2007 174.025 69.2007ZM174.94 54.8997C171.589 54.8997 168.124 57.1677 168.124 60.9637V61.1137L172.123 61.2547V61.0947C172.123 59.7967 172.871 58.4087 174.972 58.4087C176.841 58.4087 177.789 59.5317 177.789 61.7477V62.0907L173.951 62.3117C169.781 62.5497 167.666 64.3037 167.666 67.5267C167.666 70.6427 169.866 72.5787 173.405 72.5787C175.057 72.5787 176.53 72.0287 177.789 70.9437V72.2517H181.788V61.6817C181.788 57.3077 179.355 54.8997 174.94 54.8997Z" fill="#F5EFE8"/>
<path fill-rule="evenodd" clip-rule="evenodd" d="M196.259 54.8994C194.19 54.8994 192.527 55.6574 191.516 57.0474V55.1934H187.745V72.2524H191.711V62.5304C191.711 60.2554 193.28 58.6034 195.442 58.6034C197.602 58.6034 198.944 60.0964 198.944 62.4984V72.2524H202.943V62.0084C202.943 57.6894 200.32 54.8994 196.259 54.8994Z" fill="#F5EFE8"/>
<path fill-rule="evenodd" clip-rule="evenodd" d="M216.663 69.1025C213.717 69.1025 211.888 67.0475 211.888 63.7395C211.888 60.4615 213.762 58.3425 216.663 58.3425C219.488 58.3425 221.243 60.2355 221.243 63.2815V64.1635C221.243 67.2105 219.488 69.1025 216.663 69.1025ZM221.243 46.5735V56.9235C220.138 55.6485 218.245 54.8995 216.075 54.8995C211.16 54.8995 207.856 58.4525 207.856 63.7395C207.856 69.0265 211.16 72.5785 216.075 72.5785C218.38 72.5785 220.343 71.7295 221.439 70.2845V72.2525H225.21V46.5735H221.243Z" fill="#F5EFE8"/>
</g>
</symbol>
 
<symbol id="footer-logo" viewBox="0 0 357 141">
<path fill-rule="evenodd" clip-rule="evenodd" d="M83.2496 60.0618L85.5665 58.7423C86.3389 58.3021 86.4843 57.8094 85.6298 57.3249C84.7748 56.8408 83.8199 56.942 82.9856 57.4179L80.7873 58.6719L83.2496 60.0618ZM87.919 62.6985L90.345 61.3148C91.2383 60.8053 91.4754 60.2268 90.5317 59.692C89.5729 59.1485 88.5257 59.2854 87.6767 59.7695L85.2161 61.1721L87.919 62.6985ZM92.6706 62.3431L87.6781 65.1719L76.4448 58.8346L81.1369 56.1732C83.1454 55.0276 85.6028 54.7503 87.7172 55.9481C88.7802 56.5506 89.0393 57.222 88.832 57.8176C90.0086 57.5188 91.5943 57.62 93.0055 58.4198C95.1465 59.6329 94.786 61.1367 92.6706 62.3431Z" fill="#F6F0E9"/>
<path fill-rule="evenodd" clip-rule="evenodd" d="M96.4385 54.241C98.7874 55.6182 101.663 55.611 103.741 54.3849C105.786 53.1783 105.788 51.4868 103.439 50.1096C101.075 48.7234 98.2176 48.7415 96.173 49.9481C94.0954 51.1742 94.0744 52.8549 96.4385 54.241ZM105.836 48.6952C109.422 50.7973 109.208 53.6155 105.829 55.6091C102.418 57.6226 97.6421 57.7488 94.0569 55.6467C90.4714 53.5443 90.6703 50.7351 94.0819 48.722C97.4603 46.728 102.251 46.5929 105.836 48.6952Z" fill="#F6F0E9"/>
<mask id="mask0" mask-type="alpha" maskUnits="userSpaceOnUse" x="101" y="38" width="23" height="14">
<path fill-rule="evenodd" clip-rule="evenodd" d="M101.676 38.2939H123.354V51.0083H101.676V38.2939Z" fill="white"/>
</mask>
<g mask="url(#mask0)">
<path fill-rule="evenodd" clip-rule="evenodd" d="M123.354 44.8452L120.634 46.4431L113.864 45.4374L115.574 49.4169L112.865 51.0083L110.579 45.5526L101.676 44.2126L104.38 42.6233L110.749 43.6066L109.055 39.8767L111.748 38.2939L114.037 43.5069L123.354 44.8452Z" fill="#F6F0E9"/>
</g>
<path fill-rule="evenodd" clip-rule="evenodd" d="M82.4762 76.3319V75.4008C82.481 72.7448 81.2662 69.1403 78.8965 67.7436C76.5299 66.3483 75.3425 67.146 75.3497 69.4292L75.3565 72.0863L82.4762 76.3319ZM78.888 65.0755C82.3446 67.1131 84.4203 71.0907 84.4322 74.8053L84.4449 80.1719L73.462 73.6292L73.4449 68.303C73.433 64.5884 75.4314 63.0377 78.888 65.0755Z" fill="#F6F0E9"/>
<path fill-rule="evenodd" clip-rule="evenodd" d="M84.4448 84.6262V86.8544L77.6725 88.5293L84.4448 92.503V95.1719L73.4448 88.7176V86.5142L80.2404 84.8263L73.4448 80.839V78.1719L84.4448 84.6262Z" fill="#F6F0E9"/>
<path fill-rule="evenodd" clip-rule="evenodd" d="M80.4336 105.008V101.582L76.9188 101.282L80.4336 105.008ZM84.4448 101.988L82.2858 101.728V107.004L84.4448 109.313L84.4376 112.172L73.4448 100.428V98.1719L84.4448 99.0223V101.988Z" fill="#F6F0E9"/>
<path fill-rule="evenodd" clip-rule="evenodd" d="M84.4448 115.424V124.172L73.4448 117.34V114.52L82.4255 120.098V114.172L84.4448 115.424Z" fill="#F6F0E9"/>
<path d="M1.94482 24.6719L53.8604 50.7969" stroke="#F6F0E9"/>
<path d="M355.945 1.5L108.5 139.5" stroke="#F6F0E9"/>
<path d="M42.9448 1.67188L1.94482 24.6719" stroke="#F6F0E9"/>
<path d="M108.945 83.7656V139.266" stroke="#F6F0E9"/>
</symbol>
 
<symbol id="footer-logo-payment" viewBox="0 0 135 29">
<path fill-rule="evenodd" clip-rule="evenodd" d="M12.3703 7.89265L8.87132 16.8326L8.49832 15.4826C7.80832 13.8566 5.84932 11.5206 3.54932 10.0486L6.74832 20.9806L10.5293 20.9736L16.1553 7.88965L12.3703 7.89265Z" fill="#F6F0E9"/>
<mask id="mask0" mask-type="alpha" maskUnits="userSpaceOnUse" x="0" y="7" width="9" height="8">
<path fill-rule="evenodd" clip-rule="evenodd" d="M0 7.76562H8.3466V14.6216H0V7.76562Z" fill="white"/>
</mask>
<g mask="url(#mask0)">
<path fill-rule="evenodd" clip-rule="evenodd" d="M7.14151 8.83063C6.93351 8.03163 6.33151 7.79363 5.58451 7.76562H0.0455117L-0.000488281 8.02663C4.31051 9.07263 7.16251 11.5916 8.34651 14.6216L7.14151 8.83063Z" fill="#F6F0E9"/>
</g>
<path fill-rule="evenodd" clip-rule="evenodd" d="M28.4148 10.3913C29.5838 10.3733 30.4308 10.6283 31.0888 10.8933L31.4118 11.0443L31.8948 8.20332C31.1868 7.93832 30.0778 7.65332 28.6938 7.65332C25.1638 7.65332 22.6758 9.43132 22.6558 11.9793C22.6328 13.8623 24.4288 14.9133 25.7848 15.5403C27.1768 16.1843 27.6438 16.5933 27.6378 17.1673C27.6268 18.0443 26.5278 18.4473 25.5008 18.4473C24.0698 18.4473 23.3108 18.2493 22.1368 17.7613L21.6768 17.5513L21.1738 20.4853C22.0098 20.8523 23.5528 21.1673 25.1548 21.1833C28.9098 21.1833 31.3508 19.4263 31.3768 16.7043C31.3918 15.2143 30.4388 14.0783 28.3748 13.1453C27.1248 12.5373 26.3598 12.1323 26.3678 11.5183C26.3678 10.9743 27.0158 10.3913 28.4148 10.3913Z" fill="#F6F0E9"/>
<path fill-rule="evenodd" clip-rule="evenodd" d="M36.6575 16.3416C36.9515 15.5886 38.0805 12.6776 38.0805 12.6776C38.0615 12.7136 38.3725 11.9196 38.5565 11.4266L38.7975 12.5566C38.7975 12.5566 39.4825 15.6866 39.6255 16.3416H36.6575ZM41.0635 7.89258H38.3035C37.4455 7.89258 36.8085 8.12558 36.4315 8.98058L31.1265 20.9936H34.8785C34.8785 20.9936 35.4905 19.3786 35.6295 19.0246C36.0405 19.0246 39.6855 19.0306 40.2045 19.0306C40.3115 19.4876 40.6395 20.9936 40.6395 20.9936H43.9545L41.0635 7.89258Z" fill="#F6F0E9"/>
<path fill-rule="evenodd" clip-rule="evenodd" d="M131.136 3.45581C129.932 2.09181 127.754 1.50781 124.966 1.50781H116.878C116.308 1.50781 115.824 1.91981 115.734 2.47581L112.366 23.6668C112.3 24.0848 112.626 24.4628 113.052 24.4628H118.045L119.299 16.5708L119.26 16.8198C119.349 16.2628 119.831 15.8518 120.401 15.8518H122.773C127.436 15.8518 131.084 13.9728 132.151 8.53881C132.183 8.37781 132.233 8.06781 132.233 8.06781C132.537 6.05681 132.232 4.69381 131.136 3.45581Z" fill="#F6F0E9"/>
<path fill-rule="evenodd" clip-rule="evenodd" d="M133.498 9.09766C132.339 14.4477 128.642 17.2777 122.774 17.2777H120.647L119.059 27.3287H122.51C123.008 27.3287 123.433 26.9687 123.51 26.4797L123.55 26.2667L124.344 21.2787L124.396 21.0047C124.474 20.5157 124.898 20.1557 125.395 20.1557H126.026C130.104 20.1557 133.296 18.5127 134.229 13.7597C134.603 11.8527 134.423 10.2527 133.498 9.09766Z" fill="#F6F0E9"/>
<path fill-rule="evenodd" clip-rule="evenodd" d="M72.0747 25.7086L71.7867 25.6796C71.5277 25.6506 71.3257 25.5936 71.3257 25.4206C71.3257 25.2186 71.5277 25.1036 71.8447 25.1036C72.1897 25.1036 72.5357 25.2476 72.7087 25.3346L72.9677 24.8446C72.6797 24.6426 72.2767 24.5566 71.8447 24.5566C71.1527 24.5566 70.6927 24.9026 70.6927 25.4496C70.6927 25.9106 71.0377 26.1696 71.6427 26.2556L71.9307 26.2846C72.2477 26.3426 72.4207 26.4286 72.4207 26.5726C72.4207 26.7746 72.1897 26.9186 71.7867 26.9186C71.3837 26.9186 71.0667 26.7746 70.8647 26.6306L70.5767 27.0906C70.8937 27.3216 71.3257 27.4366 71.7577 27.4366C72.5647 27.4366 73.0247 27.0626 73.0247 26.5436C73.0247 26.0546 72.6507 25.7946 72.0747 25.7086Z" fill="#F6F0E9"/>
<path fill-rule="evenodd" clip-rule="evenodd" d="M75.0125 26.8603C74.7245 26.8603 74.6095 26.6873 74.6095 26.3993V25.1613H75.5885V24.6133H74.6095V23.7783H74.0045V24.6133H73.4575V25.1613H74.0045V26.4283C74.0045 27.0623 74.2635 27.4363 74.9545 27.4363C75.2145 27.4363 75.5025 27.3503 75.7035 27.2343L75.5305 26.7163C75.3585 26.8313 75.1565 26.8603 75.0125 26.8603Z" fill="#F6F0E9"/>
<path fill-rule="evenodd" clip-rule="evenodd" d="M65.5366 24.5566C65.1906 24.5566 64.8166 24.6716 64.5576 25.0466C64.3556 24.7296 64.0676 24.5566 63.6356 24.5566C63.3476 24.5566 63.0596 24.6426 62.8296 24.9596V24.6146H62.2246V27.3796H62.8296V25.8526C62.8296 25.3626 63.0886 25.1326 63.4916 25.1326C63.8946 25.1326 64.0966 25.3916 64.0966 25.8526V27.3796H64.7016V25.8526C64.7016 25.3626 64.9896 25.1326 65.3636 25.1326C65.7666 25.1326 65.9686 25.3916 65.9686 25.8526V27.3796H66.6306V25.6506C66.6306 24.9886 66.2276 24.5566 65.5366 24.5566Z" fill="#F6F0E9"/>
<path fill-rule="evenodd" clip-rule="evenodd" d="M88.3189 24.9596V24.6136H87.7139V27.3786H88.3189V25.8236C88.3189 25.3626 88.5209 25.1036 88.8949 25.1036C89.0099 25.1036 89.1539 25.1326 89.2689 25.1616L89.4419 24.5856C89.3269 24.5566 89.1539 24.5566 89.0389 24.5566C88.6929 24.5566 88.4629 24.7296 88.3189 24.9596Z" fill="#F6F0E9"/>
<path fill-rule="evenodd" clip-rule="evenodd" d="M82.7603 25.1036C83.0193 25.1036 83.2503 25.1896 83.4803 25.3626L83.7683 24.8736C83.4803 24.6426 83.1923 24.5566 82.7893 24.5566C81.8963 24.5566 81.3203 25.1616 81.3203 25.9966C81.3203 26.8316 81.8963 27.4366 82.7893 27.4366C83.1923 27.4366 83.4803 27.3506 83.7683 27.1196L83.4803 26.6306C83.2503 26.8026 83.0193 26.8896 82.7603 26.8896C82.2703 26.8896 81.9253 26.5436 81.9253 25.9966C81.9253 25.4776 82.2703 25.1326 82.7603 25.1036Z" fill="#F6F0E9"/>
<path fill-rule="evenodd" clip-rule="evenodd" d="M79.9951 24.6136H79.3901V27.3786H79.9951V25.8236C79.9951 25.3626 80.1971 25.1036 80.5711 25.1036C80.6861 25.1036 80.8301 25.1326 80.9451 25.1616L81.1181 24.5856C81.0031 24.5566 80.8301 24.5566 80.7151 24.5566C80.3691 24.5566 80.1391 24.7296 79.9951 24.9596V24.6136Z" fill="#F6F0E9"/>
<path fill-rule="evenodd" clip-rule="evenodd" d="M73.3419 11.7684C73.3419 8.45641 74.8969 5.51841 77.2879 3.61741C75.5309 2.23541 73.3129 1.39941 70.8939 1.39941C65.1619 1.39941 60.5249 6.03641 60.5249 11.7684C60.5249 17.5004 65.1619 22.1374 70.8939 22.1374C73.3129 22.1374 75.5309 21.3014 77.2879 19.9194C74.8969 18.0474 73.3419 15.0804 73.3419 11.7684Z" fill="#F6F0E9"/>
<path fill-rule="evenodd" clip-rule="evenodd" d="M83.7109 1.39941C81.2919 1.39941 79.0739 2.23441 77.3169 3.61741C79.7079 5.51841 81.2629 8.45541 81.2629 11.7684C81.2629 15.0804 79.7359 18.0184 77.3169 19.9194C79.0739 21.3014 81.2919 22.1364 83.7109 22.1364C89.4429 22.1364 94.0799 17.4994 94.0799 11.7684C94.0799 6.06541 89.4429 1.39941 83.7109 1.39941Z" fill="#F4F4F4"/>
<path fill-rule="evenodd" clip-rule="evenodd" d="M91.0842 26.8895C90.5662 26.8605 90.2492 26.4865 90.2492 25.9965C90.2492 25.5075 90.5662 25.1035 91.0842 25.1035C91.5742 25.1035 91.9192 25.4785 91.9192 25.9965C91.9192 26.4865 91.5742 26.8895 91.0842 26.8895ZM91.8622 24.9595C91.6602 24.7005 91.3722 24.5565 90.9982 24.5565C90.2202 24.5565 89.6152 25.1615 89.6152 25.9965C89.6152 26.8315 90.2202 27.4365 90.9982 27.4365C91.4012 27.4365 91.6892 27.2925 91.8622 27.0335V27.3795H92.4662V25.9965V23.5195H91.8622V24.9595Z" fill="#F6F0E9"/>
<path fill-rule="evenodd" clip-rule="evenodd" d="M85.5252 26.8896C85.0072 26.8606 84.6902 26.4866 84.6902 25.9966C84.6902 25.5076 85.0072 25.1036 85.5252 25.1036C86.0152 25.1036 86.3602 25.4786 86.3602 25.9966C86.3602 26.4866 86.0152 26.8896 85.5252 26.8896ZM86.3032 24.9596C86.1012 24.7006 85.8132 24.5566 85.4392 24.5566C84.6612 24.5566 84.0562 25.1616 84.0562 25.9966C84.0562 26.8316 84.6612 27.4366 85.4392 27.4366C85.8422 27.4366 86.1302 27.2926 86.3032 27.0336V27.3796H86.9082V25.9966V24.6146H86.3032V24.9596Z" fill="#F6F0E9"/>
<path fill-rule="evenodd" clip-rule="evenodd" d="M76.7121 25.7376C76.7701 25.3636 77.0291 25.0756 77.4611 25.0756C77.8351 25.0756 78.0941 25.3056 78.1521 25.7376H76.7121ZM77.4611 24.5566C76.6541 24.5566 76.0781 25.1326 76.0781 25.9966C76.0781 26.8606 76.6541 27.4366 77.4901 27.4366C77.8931 27.4366 78.2961 27.3216 78.6131 27.0626L78.3251 26.6306C78.0941 26.8036 77.8061 26.9186 77.5181 26.9186C77.1441 26.9186 76.7701 26.7456 76.6831 26.2556H78.7281V26.0256C78.7571 25.1326 78.2391 24.5566 77.4611 24.5566Z" fill="#F6F0E9"/>
<path fill-rule="evenodd" clip-rule="evenodd" d="M68.6187 26.8896C68.1007 26.8606 67.7837 26.4866 67.7837 25.9966C67.7837 25.5076 68.1007 25.1036 68.6187 25.1036C69.1087 25.1036 69.4537 25.4786 69.4537 25.9966C69.4537 26.4866 69.1087 26.8896 68.6187 26.8896ZM69.4247 24.9596C69.2237 24.7006 68.9357 24.5566 68.5607 24.5566C67.7837 24.5566 67.1787 25.1616 67.1787 25.9966C67.1787 26.8316 67.7837 27.4366 68.5607 27.4366C68.9647 27.4366 69.2527 27.2926 69.4247 27.0336V27.3796H70.0297V25.9966V24.6146H69.4247V24.9596Z" fill="#F6F0E9"/>
<path fill-rule="evenodd" clip-rule="evenodd" d="M73.3423 11.7682C73.3423 15.0802 74.8973 18.0472 77.2883 19.9192H77.3173C79.7363 18.0182 81.2633 15.0802 81.2633 11.7682C81.2633 8.45619 79.7073 5.51819 77.3173 3.61719H77.2883C74.8973 5.51819 73.3423 8.45619 73.3423 11.7682Z" fill="#F4F4F4"/>
<path fill-rule="evenodd" clip-rule="evenodd" d="M77.2208 19.9957L77.1383 19.953C74.6358 17.9948 73.1416 14.9081 73.1416 11.6992C73.1416 8.47242 74.598 5.46419 77.1373 3.44645L77.191 3.40274H77.2208C79.0766 1.96121 81.295 1.19922 83.6416 1.19922C89.4316 1.19922 94.1416 5.91026 94.1416 11.6992C94.1416 17.4892 89.4316 22.1992 83.6416 22.1992C81.295 22.1992 79.0766 21.4372 77.2208 19.9957Z" fill="#F6F0E9"/>
<path fill-rule="evenodd" clip-rule="evenodd" d="M83.7108 1.39941C89.4428 1.39941 94.0798 6.06541 94.0798 11.7684C94.0798 17.4994 89.4428 22.1364 83.7108 22.1364C81.2918 22.1364 79.0738 21.3014 77.3168 19.9184H77.2878C74.8978 18.0464 73.3418 15.0804 73.3418 11.7684C73.3418 8.45541 74.8978 5.51841 77.2878 3.61741H77.3168C79.0738 2.23441 81.2918 1.39941 83.7108 1.39941Z" fill="#F7F1EB"/>
</symbol>
 
<symbol id="faq-icon-1" fill="none" viewBox="0 0 51 58">
<path fill-rule="evenodd" clip-rule="evenodd" d="M8.42285 29.5597L50.1469 5.4707L50.2239 32.6817L8.49985 56.7707L8.42285 29.5597Z" stroke="black" stroke-opacity="0.85" stroke-linecap="round" stroke-linejoin="round"/>
<path fill-rule="evenodd" clip-rule="evenodd" d="M8.5 56.7709L1.452 52.6749L1.375 25.4639L8.423 29.5599L8.5 56.7709Z" stroke="black" stroke-opacity="0.85" stroke-linecap="round" stroke-linejoin="round"/>
<path d="M1.375 25.464L43.099 1.375L50.147 5.471" stroke="black" stroke-opacity="0.85" stroke-linecap="round" stroke-linejoin="round"/>
<path d="M50.1469 5.4707L29.3399 29.9147L8.42285 29.5597" stroke="black" stroke-opacity="0.85" stroke-linecap="round" stroke-linejoin="round"/>
</symbol>
 
<symbol id="faq-icon-2" viewBox="0 0 44 58" fill="none">
<path d="M21.4169 48.8868L7.35046 57L8.20064 40.2138H8.19587C5.4544 34.7187 5.16588 27.3494 7.97789 20.2798C12.5698 8.73613 23.689 2.36186 32.814 6.04275C41.9389 9.72311 45.6139 22.0647 41.0219 33.6083C37.2913 42.9878 29.2509 48.9546 21.4726 48.8878" stroke="#1D1D1B" stroke-linecap="round" stroke-linejoin="round"/>
<path d="M37 8.39761L32.5152 4.67411C31.2596 3.57077 29.8235 2.67658 28.2227 2.04168C18.9592 -1.63541 7.66998 4.73226 3.00807 16.264C0.154808 23.322 0.445572 30.6789 3.22506 36.1678L2.32585 52.9505L7.24514 57" stroke="#1D1D1B" stroke-linecap="round" stroke-linejoin="round"/>
<path fill-rule="evenodd" clip-rule="evenodd" d="M21.5511 17.0352C21.7233 17.0529 21.8961 17.0647 22.0637 17.1088C22.3231 17.1776 22.4839 17.3669 22.5494 17.7066C22.6562 18.2625 22.7433 18.827 22.83 19.3915C22.9475 20.1629 23.0584 20.937 23.1548 21.7176C23.1657 21.8069 23.1677 21.901 23.1863 21.9864C23.2626 22.3456 23.1579 22.6643 22.9738 22.9686C22.7289 23.374 22.4396 23.7229 22.1482 24.0696C22.0069 24.2379 21.8646 24.4051 21.7254 24.5766C21.5707 24.768 21.5263 24.9765 21.581 25.226C21.9043 26.6888 22.4293 27.9839 23.1677 29.1042C23.7097 29.9267 24.3388 30.6213 25.034 31.2186C25.3604 31.4987 25.7023 31.7486 26.0442 31.9986C26.2226 32.1298 26.3825 32.0846 26.5526 31.9201C26.8259 31.6567 27.0668 31.3422 27.3153 31.0401C27.6113 30.6804 27.9109 30.3251 28.2069 29.9654C28.4488 29.6708 28.6649 29.673 28.9041 29.8101C29.1486 29.9499 29.3775 30.1219 29.6049 30.2977C30.2402 30.7885 30.8642 31.3008 31.4707 31.846C31.6114 31.9728 31.7465 32.1105 31.8858 32.24C31.9765 32.3244 32.0152 32.4378 31.9946 32.5959C31.8677 33.548 31.6537 34.4646 31.1143 35.2382C30.8049 35.6817 30.4264 35.9946 30.0268 36.2585C29.3966 36.6746 28.7458 36.9187 28.0734 36.9875C27.435 37.0531 26.8626 36.8531 26.3113 36.5515C25.496 36.1059 24.7039 35.6081 23.933 35.0619C23.2203 34.5571 22.5799 33.9324 22.0023 33.2028C20.84 31.7363 19.9607 29.9832 19.2238 28.0855C18.8819 27.2038 18.5643 26.3044 18.3271 25.3491C18.0558 24.2551 17.9238 23.1154 18.0455 21.9015C18.1548 20.8129 18.4709 19.8006 19.0124 18.8818C19.3502 18.3087 19.7498 17.8228 20.1938 17.3959C20.5104 17.0916 20.8482 16.9868 21.203 17.0013C21.3195 17.0061 21.4351 17.0233 21.5511 17.0352Z" stroke="#1D1D1B" stroke-linecap="round" stroke-linejoin="round"/>
</symbol>
 
</svg>