<svg width="116" height="137" viewBox="0 0 116 137" fill="none" xmlns="http://www.w3.org/2000/svg">
<path d="M95.3307 99.5836C95.346 104.784 79.7807 116.589 65.1226 125.066C50.4634 133.544 34.8829 139.751 34.8677 134.551" stroke="#1D1D1B" stroke-linecap="round" stroke-linejoin="round"/>
<path d="M95.2317 64.9918L95.2328 71.491L95.3307 99.584" stroke="#1D1D1B" stroke-linecap="round" stroke-linejoin="round"/>
<mask id="mask0" mask-type="alpha" maskUnits="userSpaceOnUse" x="50" y="85" width="2" height="1">
<path fill-rule="evenodd" clip-rule="evenodd" d="M51.1168 85.826L50.0688 85.52C50.4108 85.638 50.7598 85.741 51.1168 85.826Z" fill="white"/>
</mask>
<g mask="url(#mask0)">
<path d="M50.601 85.6892C50.422 85.6372 50.245 85.5802 50.069 85.5202" stroke="#1D1D1B" stroke-linecap="round" stroke-linejoin="round"/>
</g>
<mask id="mask1" mask-type="alpha" maskUnits="userSpaceOnUse" x="50" y="85" width="2" height="1">
<path fill-rule="evenodd" clip-rule="evenodd" d="M51.1168 85.826L50.0688 85.52C50.4108 85.638 50.7598 85.741 51.1168 85.826Z" fill="white"/>
</mask>
<g mask="url(#mask1)">
<path d="M51.1169 85.8253C50.9429 85.7843 50.7709 85.7383 50.6009 85.6893" stroke="#1D1D1B" stroke-linecap="round" stroke-linejoin="round"/>
</g>
<path d="M51.1174 85.7069C50.7291 85.6145 50.3515 85.5036 49.9805 85.3753" stroke="#1D1D1B" stroke-linecap="round" stroke-linejoin="round"/>
<path d="M34.4982 136.059L20.0136 128.023L19.9116 99.3755" stroke="#1D1D1B" stroke-linecap="round" stroke-linejoin="round"/>
<path d="M34.4004 100.035L34.498 136.059" stroke="#1D1D1B" stroke-linecap="round" stroke-linejoin="round"/>
<path d="M87.7513 42.592C87.7751 51.0306 84.3902 60.5412 79.0937 68.5307C78.7249 69.0863 78.3495 69.6332 77.9633 70.1736C74.1769 75.4655 69.5487 79.9691 64.5549 82.8592C59.56 85.7492 54.922 86.6071 51.1183 85.7068C50.73 85.6144 50.3513 85.5035 49.9814 85.3752C44.6577 83.5311 41.2294 77.963 41.2056 69.5245" stroke="#1D1D1B" stroke-linecap="round" stroke-linejoin="round"/>
<path d="M107.65 12.0242L93.991 3.56715C93.9487 3.54214 93.9064 3.51822 93.863 3.4943C93.4854 3.2801 93.0938 3.08874 92.6913 2.92021C92.292 2.75276 91.8809 2.60706 91.4588 2.4842C91.0336 2.36025 90.5963 2.25913 90.1494 2.18193C89.6904 2.10147 89.2207 2.0471 88.7401 2.01666L88.7487 2.02101L88.7401 2.01666C88.7129 2.01449 88.6836 2.01775 88.6565 2.01666C88.5502 2.01014 88.4385 2.01666 88.33 2.0134C87.9568 2.00035 87.5846 1.9873 87.1984 2.00361C87.0769 2.01014 86.9467 2.03297 86.823 2.04167C86.592 2.05798 86.3598 2.08516 86.1254 2.11234C85.903 2.13735 85.6882 2.14387 85.4637 2.17867C85.276 2.20694 85.0796 2.26565 84.8897 2.30153C84.5762 2.36025 84.2605 2.42657 83.9404 2.50486C83.7647 2.54726 83.5954 2.56792 83.4186 2.61576C83.2483 2.66252 83.0693 2.74406 82.8989 2.79517C82.3619 2.95718 81.8173 3.14637 81.2662 3.35948C81.0698 3.43668 80.8821 3.47908 80.6836 3.56172C80.5751 3.60629 80.4612 3.67914 80.3516 3.7259C79.3958 4.14125 78.427 4.60661 77.4397 5.17853C76.626 5.64933 75.8015 6.18102 74.9672 6.77143L67.0799 2.17758C67.0376 2.15366 66.9964 2.12974 66.9541 2.10582C66.5787 1.89271 66.1903 1.70352 65.7911 1.53607C65.7108 1.50237 65.624 1.47953 65.5426 1.448C65.4124 1.3969 65.2779 1.35341 65.1455 1.30774C64.9513 1.23924 64.7637 1.16095 64.5662 1.10333C64.3297 1.03374 64.0823 0.98916 63.8382 0.934795C63.7102 0.906525 63.5833 0.870644 63.452 0.845636C63.388 0.833676 63.3272 0.813017 63.2643 0.802144C62.8065 0.722771 62.3378 0.667319 61.8604 0.636874C61.817 0.6347 61.7704 0.639049 61.727 0.635787C61.5946 0.629263 61.4569 0.635787 61.3223 0.632525C60.9925 0.624914 60.6649 0.608604 60.3253 0.623827C60.1843 0.63035 60.0367 0.657533 59.8946 0.667319C59.657 0.683628 59.4172 0.710811 59.1764 0.739081C58.9768 0.761914 58.7837 0.76735 58.5819 0.797795C58.3812 0.829327 58.1707 0.890215 57.9667 0.929358C57.6467 0.990247 57.3277 1.05549 57.0022 1.13486C56.8428 1.174 56.6887 1.19249 56.527 1.23598C56.3535 1.28382 56.1712 1.36754 55.9944 1.41973C55.4552 1.58174 54.9095 1.77093 54.3572 1.98513C54.1685 2.05689 53.9895 2.09712 53.8018 2.17541C53.69 2.22216 53.5729 2.2961 53.4611 2.34502C52.4999 2.76146 51.5289 3.22683 50.5405 3.79766C50.5026 3.82049 50.4657 3.84768 50.4277 3.86942C47.761 5.42752 45.1789 7.45426 42.7661 9.83871C41.8982 10.6977 41.0509 11.6034 40.2296 12.5483C40.2285 12.5494 40.2274 12.5515 40.2263 12.5526L40.222 12.5559C39.5776 13.2996 38.9483 14.0672 38.3375 14.8566C38.0348 15.2491 37.7452 15.6579 37.4522 16.0613C37.3351 16.2201 37.2179 16.3745 37.1029 16.5343C37.0042 16.6735 36.8989 16.805 36.8002 16.9453C36.3402 17.602 35.8921 18.2729 35.4571 18.9536C35.188 19.3765 34.9331 19.8093 34.6738 20.2387C34.6033 20.3562 34.5317 20.4703 34.4622 20.5878C34.3961 20.6987 34.3245 20.8052 34.2604 20.9172C33.8851 21.5609 33.5227 22.2133 33.1734 22.8722C32.837 23.505 32.5148 24.1454 32.2035 24.7902C32.198 24.8 32.1926 24.8109 32.1883 24.8206C32.185 24.8272 32.1807 24.8337 32.1785 24.8402C31.8585 25.5045 31.5514 26.1754 31.2596 26.8506C30.9612 27.5422 30.6759 28.238 30.4079 28.9382C30.3711 29.0339 30.3407 29.1307 30.3049 29.2264C30.2604 29.3438 30.2224 29.4612 30.179 29.5787C29.987 30.1006 29.7917 30.6225 29.617 31.1476C29.3523 31.9425 29.1093 32.7416 28.8869 33.543C28.8446 33.6952 28.8023 33.8474 28.7632 33.9986C28.1405 34.1986 27.5221 34.4269 26.907 34.6825C26.8093 34.7227 26.716 34.7825 26.6205 34.8238C25.6463 35.2413 24.6829 35.7045 23.7379 36.2514C23.7228 36.2601 23.7076 36.2721 23.6924 36.2797C20.9899 37.8498 18.3959 39.8895 15.9841 42.2718C15.8127 42.4414 15.6543 42.6328 15.4851 42.8057C14.9589 43.3417 14.4414 43.893 13.9337 44.4606C13.7731 44.6411 13.6006 44.8031 13.4433 44.9857C13.3066 45.1434 13.1796 45.3119 13.0462 45.4707C12.7381 45.8338 12.4387 46.2046 12.1381 46.5775C11.945 46.8189 11.7411 47.0483 11.5512 47.2941C11.3928 47.4996 11.2442 47.7159 11.0869 47.9247C10.8688 48.2161 10.654 48.5075 10.4413 48.8032C10.2949 49.0055 10.1408 49.2001 9.99761 49.4045C9.75351 49.7557 9.52134 50.1167 9.28374 50.4744C9.13403 50.6984 8.98106 50.9191 8.83459 51.1453C8.77492 51.2399 8.70874 51.3301 8.64799 51.4247C8.23356 52.076 7.83106 52.7349 7.44158 53.4036C7.41662 53.4482 7.39384 53.4939 7.36672 53.5384C7.28969 53.6733 7.217 53.8103 7.14106 53.9462C6.872 54.4192 6.60186 54.8932 6.34582 55.3738C6.22865 55.5945 6.12233 55.8207 6.00841 56.0425C5.88799 56.2784 5.76865 56.5122 5.65148 56.7482C5.55058 56.9537 5.44101 57.1559 5.3412 57.3625C5.08082 57.9029 4.8378 58.4487 4.59587 58.9956C4.54922 59.0978 4.5004 59.1989 4.45591 59.3022C4.4429 59.3316 4.42662 59.362 4.41469 59.3914C4.11417 60.0873 3.82884 60.7864 3.5587 61.4877C3.51096 61.6138 3.47082 61.74 3.42417 61.865C3.3287 62.1194 3.24191 62.3749 3.14969 62.6305C3.02384 62.9849 2.88823 63.3383 2.76997 63.6928C2.67992 63.9613 2.60724 64.231 2.5237 64.4995C2.42389 64.8214 2.32299 65.1421 2.22969 65.464C2.1711 65.6662 2.10167 65.8684 2.04634 66.0707C1.94761 66.423 1.87601 66.7753 1.78705 67.1275C1.68724 67.5244 1.58417 67.9213 1.49629 68.3181C1.46483 68.4606 1.42143 68.603 1.39106 68.7444C1.3303 69.0325 1.29884 69.3174 1.24351 69.6044C1.12634 70.222 1.01568 70.8363 0.927802 71.4496C0.902849 71.6224 0.860538 71.7986 0.838839 71.9715C0.787849 72.3585 0.762896 72.7402 0.724924 73.1251C0.698887 73.398 0.666339 73.6731 0.644641 73.9449C0.580632 74.8115 0.539405 75.6716 0.54266 76.5186C0.562188 83.8589 1.49195 87.9668 5.67101 90.4012L20.6091 99.6607" stroke="#1D1D1B" stroke-linecap="round" stroke-linejoin="round"/>
<path d="M51.1176 85.7069C47.1805 91.2075 42.5588 95.5861 37.7038 98.3957C37.0496 98.774 36.402 99.1155 35.7597 99.4264L34.4003 100.035C23.1205 104.706 14.3936 98.5468 14.3556 85.0599C14.3144 70.2835 24.7208 52.218 37.552 44.7939C39.1858 43.8479 40.8729 43.0901 42.5762 42.541C45.9014 30.0609 54.5676 18.0038 64.3556 12.3401C74.1252 6.68721 82.8489 8.68241 86.2328 17.2808C87.9339 15.8597 89.6187 14.6658 91.2526 13.721C104.085 6.29578 114.56 12.2781 114.601 27.0556C114.639 40.5425 105.976 56.7651 94.707 65.1405L93.3487 66.1039C92.7075 66.5356 92.0598 66.9433 91.4045 67.3228C86.5376 70.1389 81.9083 71.1153 77.9625 70.1737" stroke="#1D1D1B" stroke-linecap="round" stroke-linejoin="round"/>
<path d="M80.5 10.5L74.5 6.5" stroke="#1D1D1B" stroke-linecap="round" stroke-linejoin="round"/>
<path d="M42.5 42.5L29 34" stroke="#1D1D1B" stroke-linecap="round" stroke-linejoin="round"/>
</svg>
