<svg width="69" height="148" viewBox="0 0 69 148" fill="none" xmlns="http://www.w3.org/2000/svg">
<path d="M50 1.07163C47.9053 -0.224854 45.1508 -0.445883 42.7163 0.969367L4.87936 22.6616C2.69062 23.9334 1.34637 26.2773 1.35627 28.8092L1 130.885C1.01155 133.609 2.4927 135.816 4.55938 137" stroke="#1D1D1B"/>
<path fill-rule="evenodd" clip-rule="evenodd" d="M15.0001 38.6646L15.3924 139.908C15.4138 145.377 21.3149 148.774 26.0194 146.028L64.4791 123.611C66.6632 122.337 68.0049 119.987 68 117.447L67.7577 16.1026C67.7445 10.629 61.84 7.22286 57.1307 9.97291L18.5193 32.4902C16.3319 33.7675 14.9902 36.1216 15.0001 38.6646Z" stroke="#1D1D1B"/>
<path d="M1 42.5486L14.6378 51L68 19.4399" stroke="#1D1D1B"/>
<path d="M1 126.544L15.2055 135C15.2055 135 68 103.5 68 103.5" stroke="#1D1D1B"/>
<path d="M50 1L64.9619 10.3774" stroke="#1D1D1B"/>
<path d="M4.55933 137L18.9999 146" stroke="#1D1D1B"/>
<path fill-rule="evenodd" clip-rule="evenodd" d="M47.8685 126.145C47.3454 128.603 45.4129 130.31 43.5537 129.953C41.6929 129.597 40.6084 127.315 41.1315 124.855C41.6546 122.396 43.5871 120.691 45.4479 121.047C47.3071 121.402 48.3916 123.686 47.8685 126.145Z" stroke="#1D1D1B"/>
<path fill-rule="evenodd" clip-rule="evenodd" d="M63.6807 52.7183C62.4106 59.2765 57.7187 63.8242 53.1997 62.8747C48.6822 61.9251 46.0491 55.84 47.3193 49.2817C48.591 42.7235 53.2829 38.1758 57.8003 39.1253C62.3178 40.0749 64.9509 46.16 63.6807 52.7183Z" stroke="#1D1D1B"/>
<path d="M52.6602 50.5L57 44V57" stroke="#1D1D1B" stroke-linecap="round" stroke-linejoin="round"/>
<path d="M59 61.7892V74.1566C59 75.2775 58.4057 76.3153 57.4382 76.8765L28.6837 93.5745C26.6019 94.7834 24 93.2723 24 90.8546V64.3397C24 63.2172 24.5943 62.1811 25.5601 61.6198L47.2932 49" stroke="#1D1D1B" stroke-linecap="round" stroke-linejoin="round"/>
<path d="M24 107L59 86" stroke="#1D1D1B" stroke-linecap="round" stroke-linejoin="round"/>
<path d="M24 114L59 93" stroke="#1D1D1B" stroke-linecap="round" stroke-linejoin="round"/>
<path fill-rule="evenodd" clip-rule="evenodd" d="M37 64V78L47 69.3957L37 64Z" stroke="#1D1D1B"/>
</svg>
