<svg width="116" height="181" viewBox="0 0 116 181" fill="none" xmlns="http://www.w3.org/2000/svg">
<path d="M86.9862 57.7949C85.7162 57.0089 84.0462 56.8749 82.5702 57.7329L3.36821 103.751C2.04121 104.522 1.22621 105.943 1.23221 107.478L1.50021 168.921C1.50621 170.572 2.40421 171.91 3.65821 172.628" stroke="#1D1D1B" stroke-linecap="round" stroke-linejoin="round"/>
<path fill-rule="evenodd" clip-rule="evenodd" d="M12.6851 114.184L12.9231 175.297C12.9361 178.598 16.5161 180.649 19.3701 178.991L98.4811 133.034C99.8061 132.264 100.62 130.846 100.617 129.313L100.47 68.1391C100.462 64.8351 96.8801 62.7791 94.0231 64.4391L14.8201 110.457C13.4931 111.228 12.6791 112.649 12.6851 114.184Z" stroke="#1D1D1B" stroke-linecap="round" stroke-linejoin="round"/>
<path d="M1.46045 114.887C1.46045 114.887 12.6849 121.715 12.6849 121.715L100.401 70.604" stroke="#1D1D1B" stroke-linecap="round" stroke-linejoin="round"/>
<path d="M86.9895 57.8033L98.5655 64.5923" stroke="#1D1D1B" stroke-linecap="round" stroke-linejoin="round"/>
<path d="M3.65771 172.628L15.1087 179.018" stroke="#1D1D1B" stroke-linecap="round" stroke-linejoin="round"/>
<path fill-rule="evenodd" clip-rule="evenodd" d="M49.375 109.418V134.998L67.124 119.277L49.375 109.418Z" stroke="#1D1D1B" stroke-linecap="round" stroke-linejoin="round"/>
<path d="M100.616 122.208L12.9104 171.921L1.46045 165.831" stroke="#1D1D1B" stroke-linecap="round" stroke-linejoin="round"/>
<path d="M62.9104 68.7829V38.6865L115.465 8.12646V109.702L100.616 118.399" stroke="#1D1D1B" stroke-linecap="round" stroke-linejoin="round"/>
<path d="M115.466 8.127L103.713 1L50.9978 31.571L62.9108 38.686" stroke="#1D1D1B" stroke-linecap="round" stroke-linejoin="round"/>
<path d="M50.9973 31.571V76.063" stroke="#1D1D1B" stroke-linecap="round" stroke-linejoin="round"/>
<path d="M71.6829 43.7513L106.716 23.5623" stroke="#1D1D1B" stroke-linecap="round" stroke-linejoin="round"/>
<path d="M71.6829 53.8727L106.716 33.6837" stroke="#1D1D1B" stroke-linecap="round" stroke-linejoin="round"/>
<path d="M82.5708 57.7327L106.716 43.7787" stroke="#1D1D1B" stroke-linecap="round" stroke-linejoin="round"/>
<path d="M93.4958 61.6434L106.716 54.0244" stroke="#1D1D1B" stroke-linecap="round" stroke-linejoin="round"/>
<path d="M100.616 67.513L106.715 64.119" stroke="#1D1D1B" stroke-linecap="round" stroke-linejoin="round"/>
<path d="M100.616 77.7598L106.715 74.3658" stroke="#1D1D1B" stroke-linecap="round" stroke-linejoin="round"/>
<path d="M100.616 88.0067L106.715 84.6127" stroke="#1D1D1B" stroke-linecap="round" stroke-linejoin="round"/>
<path d="M100.616 98.2536L106.715 94.8596" stroke="#1D1D1B" stroke-linecap="round" stroke-linejoin="round"/>
</svg>
