<svg width="109" height="164" viewBox="0 0 109 164" fill="none" xmlns="http://www.w3.org/2000/svg">
<path d="M17 69L97.5 21.5" stroke="#1D1D1B" stroke-linecap="round" stroke-linejoin="round"/>
<path d="M47.2462 62.8939C47.2462 62.8939 46.9908 86.4768 57.1857 80.6366C67.3806 74.7963 67.2667 51.2214 67.2667 51.2214" stroke="#1D1D1B" stroke-linecap="round" stroke-linejoin="round"/>
<path d="M97.4848 57.0022L97.524 115.732L16.9863 162.75" stroke="#1D1D1B" stroke-linecap="round" stroke-linejoin="round"/>
<path d="M77.3901 21.4845V33.2725L87.5149 39.2596C87.5149 39.2596 87.2594 62.8426 97.4544 57.0023C99.4966 55.8324 101.125 53.9516 102.422 51.6915C107.608 42.6652 107.534 27.5872 107.534 27.5872L97.5245 21.4845V9.69763" stroke="#1D1D1B" stroke-linecap="round" stroke-linejoin="round"/>
<path d="M87.4003 39.3264C87.4003 39.3264 87.5142 62.9012 77.3205 68.7415C73.8355 70.738 71.5724 69.2964 70.102 66.5346C67.2694 61.2158 67.3798 50.9988 67.3798 50.9988L57.1987 45.1192V33.2769" stroke="#1D1D1B" stroke-linecap="round" stroke-linejoin="round"/>
<path d="M27.1119 74.565C27.1119 74.565 26.8565 98.148 37.0514 92.3077C47.2463 86.4675 47.1324 62.8926 47.1324 62.8926L37.1216 56.7333V45.062" stroke="#1D1D1B" stroke-linecap="round" stroke-linejoin="round"/>
<path d="M1.29443 48.231L1.61313 153.873L16.9878 162.751L17.0441 68.5771" stroke="#1D1D1B" stroke-linecap="round" stroke-linejoin="round"/>
<path fill-rule="evenodd" clip-rule="evenodd" d="M17.0441 56.7898L1.29443 48.2306L82.1508 1.10278L97.4679 9.69785L17.0441 56.7898Z" stroke="#1D1D1B" stroke-linecap="round" stroke-linejoin="round"/>
<path d="M57.1411 139.027V92.1363L87.6488 74.4445V121.498" stroke="#1D1D1B" stroke-linecap="round" stroke-linejoin="round"/>
<path d="M72.3951 83.2931V130.404" stroke="#1D1D1B" stroke-linecap="round" stroke-linejoin="round"/>
<path fill-rule="evenodd" clip-rule="evenodd" d="M47.1887 133.179V98.0846L26.8633 109.876V144.971L47.1887 133.179Z" stroke="#1D1D1B" stroke-linecap="round" stroke-linejoin="round"/>
<path d="M107.535 27.5867L27.1111 74.5653L17.0439 68.5771V56.7903" stroke="#1D1D1B" stroke-linecap="round" stroke-linejoin="round"/>
</svg>
